<svg width="32" height="32" viewBox="0 0 32 32" fill="none" xmlns="http://www.w3.org/2000/svg">
<rect width="32" height="32" rx="3" fill="#63A60E"/>
<path d="M23.8989 10.0194C23.8113 9.9099 23.6787 9.84619 23.5385 9.84619H11.2547L10.9112 8.35775C10.8629 8.14834 10.6764 8 10.4615 8H8.46153C8.20666 8 8 8.20666 8 8.46156C8 8.71647 8.20666 8.92309 8.46153 8.92309H10.0944L12.426 19.0269C12.4743 19.2363 12.6608 19.3846 12.8757 19.3846H22.123C22.378 19.3846 22.5846 19.178 22.5846 18.9231C22.5846 18.6682 22.3779 18.4616 22.123 18.4616H13.2429L12.8879 16.9231H22.1539C22.3697 16.9231 22.5568 16.7735 22.6041 16.5629L23.9887 10.409C24.0195 10.2722 23.9865 10.1289 23.8989 10.0194ZM21.7846 16H12.6749L11.4678 10.7692H22.9615L21.7846 16Z" fill="white"/>
<path d="M14.7692 20C13.8361 20 13.0769 20.7592 13.0769 21.6923C13.0769 22.6255 13.8361 23.3846 14.7692 23.3846C15.7023 23.3846 16.4615 22.6255 16.4615 21.6923C16.4615 20.7592 15.7024 20 14.7692 20ZM14.7692 22.4616C14.3451 22.4616 14 22.1165 14 21.6923C14 21.2682 14.3451 20.9231 14.7692 20.9231C15.1934 20.9231 15.5384 21.2682 15.5384 21.6923C15.5384 22.1165 15.1934 22.4616 14.7692 22.4616Z" fill="white"/>
<path d="M20.3077 20C19.3745 20 18.6154 20.7592 18.6154 21.6923C18.6154 22.6255 19.3745 23.3846 20.3077 23.3846C21.2408 23.3846 22 22.6255 22 21.6923C22 20.7592 21.2408 20 20.3077 20ZM20.3077 22.4616C19.8835 22.4616 19.5384 22.1165 19.5384 21.6923C19.5384 21.2682 19.8835 20.9231 20.3077 20.9231C20.7318 20.9231 21.0769 21.2682 21.0769 21.6923C21.0769 22.1165 20.7318 22.4616 20.3077 22.4616Z" fill="white"/>
</svg>
