<svg width="18" height="18" viewBox="0 0 18 18" fill="none" xmlns="http://www.w3.org/2000/svg">
<path d="M10.0551 9.00511L17.7709 1.28925C18.0687 1.00164 18.077 0.527093 17.7894 0.229294C17.5018 -0.0685059 17.0272 -0.0767634 16.7294 0.210846C16.7232 0.216863 16.7171 0.223013 16.711 0.229294L8.99508 7.94516L1.27921 0.22925C0.981408 -0.0583596 0.506861 -0.050102 0.219251 0.247697C-0.0613304 0.538206 -0.0613304 0.998741 0.219251 1.28925L7.93512 9.00511L0.219251 16.721C-0.0734093 17.0137 -0.0734093 17.4882 0.219251 17.7809C0.511956 18.0735 0.986503 18.0735 1.27921 17.7809L8.99508 10.0651L16.7109 17.7809C17.0087 18.0685 17.4833 18.0603 17.7709 17.7625C18.0514 17.472 18.0514 17.0114 17.7709 16.721L10.0551 9.00511Z" fill="black"/>
</svg>
