<?xml version="1.0" encoding="UTF-8"?>
<svg xmlns="http://www.w3.org/2000/svg" xmlns:xlink="http://www.w3.org/1999/xlink" width="40px" height="40px" viewBox="0 0 60 60" version="1.1">
<g id="surface1">
<path style=" stroke:none;fill-rule:nonzero;fill:rgb(0%,0%,0%);fill-opacity:1;" d="M 55.457031 0 L 4.542969 0 C 3.039062 0 1.816406 1.222656 1.816406 2.726562 L 1.816406 13.636719 C 1.816406 14.40625 2.140625 15.136719 2.710938 15.65625 L 21.816406 33.023438 L 21.816406 57.273438 C 21.816406 58.21875 22.308594 59.097656 23.109375 59.59375 C 23.550781 59.863281 24.046875 60 24.546875 60 C 24.960938 60 25.378906 59.90625 25.765625 59.710938 L 36.675781 54.257812 C 37.597656 53.796875 38.183594 52.851562 38.183594 51.816406 L 38.183594 33.023438 L 57.289062 15.65625 C 57.859375 15.136719 58.183594 14.40625 58.183594 13.636719 L 58.183594 2.726562 C 58.183594 1.222656 56.960938 0 55.457031 0 Z M 33.621094 29.800781 C 33.050781 30.316406 32.726562 31.050781 32.726562 31.816406 L 32.726562 50.132812 L 27.273438 52.859375 L 27.273438 31.816406 C 27.273438 31.050781 26.949219 30.316406 26.378906 29.800781 L 11.601562 16.363281 L 48.398438 16.363281 Z M 52.726562 10.910156 L 7.273438 10.910156 L 7.273438 5.453125 L 52.726562 5.453125 Z M 52.726562 10.910156 "/>
</g>
</svg>
