<?xml version="1.0" encoding="iso-8859-1"?>
<!-- Generator: Adobe Illustrator 19.0.0, SVG Export Plug-In . SVG Version: 6.00 Build 0)  -->
<svg version="1.1" id="Capa_1" xmlns="http://www.w3.org/2000/svg" xmlns:xlink="http://www.w3.org/1999/xlink" x="0px" y="0px"
	 viewBox="0 0 50.432 50.432" style="enable-background:new 0 0 50.432 50.432;" xml:space="preserve">
<g>
	<g>
		<path d="M21.586,24.423c6.543-3.932,10.299-11.14,9.802-18.812c-0.021-0.326-0.2-0.621-0.479-0.79
			c-6.513-3.947-14.583-3.98-21.063-0.086C3.302,8.665-0.454,15.874,0.044,23.547c0.021,0.326,0.2,0.621,0.479,0.79
			c3.281,1.989,6.956,2.984,10.625,2.984C14.763,27.321,18.371,26.355,21.586,24.423z M10.875,6.448
			c5.692-3.42,12.75-3.479,18.543-0.183c0.249,6.724-3.113,12.989-8.863,16.444c-5.692,3.42-12.749,3.479-18.542,0.184
			C1.764,16.167,5.125,9.903,10.875,6.448z"/>
		<path d="M40.586,4.734c-2.117-1.272-4.413-2.137-6.824-2.572c-0.548-0.102-1.064,0.263-1.162,0.806
			c-0.098,0.544,0.263,1.064,0.806,1.162c2.172,0.392,4.24,1.172,6.149,2.318c5.75,3.455,9.112,9.72,8.863,16.444
			c-5.792,3.295-12.849,3.238-18.543-0.184c-0.473-0.283-1.088-0.131-1.373,0.342c-0.284,0.474-0.131,1.088,0.342,1.373
			c3.216,1.932,6.823,2.897,10.437,2.897c3.669,0,7.346-0.996,10.626-2.984c0.279-0.169,0.458-0.464,0.479-0.79
			C50.885,15.874,47.129,8.666,40.586,4.734z"/>
		<path d="M44.601,27.607c-0.541-0.085-1.058,0.287-1.144,0.832l-2.867,18.156H10.3L7.433,28.439
			c-0.085-0.546-0.603-0.917-1.144-0.832c-0.546,0.086-0.918,0.598-0.832,1.144l3,19c0.077,0.486,0.496,0.844,0.988,0.844h32
			c0.492,0,0.911-0.358,0.988-0.844l3-19C45.519,28.205,45.147,27.693,44.601,27.607z"/>
		<path d="M24.445,30.594c0-0.552-0.448-1-1-1h-5c-0.552,0-1,0.448-1,1v5c0,0.552,0.448,1,1,1h5c0.552,0,1-0.448,1-1V30.594z
			 M22.445,34.594h-3v-3h3V34.594z"/>
		<path d="M33.445,30.594c0-0.552-0.448-1-1-1h-5c-0.552,0-1,0.448-1,1v5c0,0.552,0.448,1,1,1h5c0.552,0,1-0.448,1-1V30.594z
			 M31.445,34.594h-3v-3h3V34.594z"/>
		<path d="M23.445,37.594h-5c-0.552,0-1,0.448-1,1v5c0,0.552,0.448,1,1,1h5c0.552,0,1-0.448,1-1v-5
			C24.445,38.042,23.998,37.594,23.445,37.594z M22.445,42.594h-3v-3h3V42.594z"/>
		<path d="M32.445,37.594h-5c-0.552,0-1,0.448-1,1v5c0,0.552,0.448,1,1,1h5c0.552,0,1-0.448,1-1v-5
			C33.445,38.042,32.998,37.594,32.445,37.594z M31.445,42.594h-3v-3h3V42.594z"/>
	</g>
</g>
<g>
</g>
<g>
</g>
<g>
</g>
<g>
</g>
<g>
</g>
<g>
</g>
<g>
</g>
<g>
</g>
<g>
</g>
<g>
</g>
<g>
</g>
<g>
</g>
<g>
</g>
<g>
</g>
<g>
</g>
</svg>
