<svg width="50" height="50" viewBox="0 0 50 50" fill="none" xmlns="http://www.w3.org/2000/svg">
<g clip-path="url(#clip0_15_116)">
<path d="M48.8663 17.5358C48.6252 16.7633 47.8031 16.3334 47.0314 16.5745C46.933 16.605 46.8407 16.6451 46.7545 16.6931C46.1609 17.0238 45.8595 17.7353 46.0701 18.4093C46.7339 20.5341 47.0703 22.7516 47.0703 25C47.0703 37.1696 37.1696 47.0703 25 47.0703C12.8304 47.0703 2.92969 37.1696 2.92969 25C2.92969 12.8304 12.8304 2.92969 25 2.92969C30.669 2.92969 36.0832 5.10788 40.1646 8.96683L37.0239 8.18405C36.2389 7.98874 35.4439 8.46634 35.2482 9.2514C35.0525 10.0365 35.5301 10.8311 36.3152 11.0268L44.7544 13.1302C44.7586 13.1313 44.7632 13.1321 44.7674 13.1332C44.8807 13.1603 44.9951 13.1737 45.1088 13.1737C45.4967 13.1737 45.8748 13.0196 46.1533 12.7361C46.5172 12.3661 46.6579 11.8317 46.524 11.3308L44.2822 2.94342C44.0731 2.16179 43.2701 1.69792 42.4889 1.90659C41.7072 2.11563 41.243 2.91824 41.452 3.69987L42.3298 6.98395C37.69 2.5219 31.4926 0 25 0C18.3224 0 12.0441 2.60048 7.32231 7.32231C2.60048 12.0441 0 18.322 0 25C0 31.6776 2.60048 37.9559 7.32231 42.6777C12.0441 47.3995 18.3224 50 25 50C31.6776 50 37.9559 47.3995 42.6777 42.6777C47.3995 37.9559 50 31.678 50 25C50 22.4548 49.6185 19.9436 48.8663 17.5358Z" fill="#63A60E"/>
<path d="M28.3367 26.1925L28.2138 26.1921V18.7317C28.2138 18.0988 27.8076 17.5373 27.2064 17.3397C26.6048 17.1425 25.9449 17.3534 25.5695 17.8634L19.012 26.7731C18.6847 27.2175 18.6351 27.8084 18.8839 28.3008C19.1322 28.7937 19.6369 29.105 20.1889 29.1061L25.2842 29.116V31.3568C25.2842 32.1659 25.9403 32.8216 26.749 32.8216C27.5581 32.8216 28.2138 32.1659 28.2138 31.3568V29.1218H28.3309H28.334C29.1416 29.1218 29.7969 28.4679 29.7988 27.66C29.8004 26.8509 29.1458 26.194 28.3367 26.1925ZM23.0846 26.1822L25.2842 23.193V26.1864L23.0846 26.1822Z" fill="#63A60E"/>
<path d="M17.5968 29.8771H13.2591C13.9473 29.0779 14.7553 28.2944 15.5091 27.5631C17.4153 25.7141 19.0617 24.1177 19.0617 22.2618C19.0617 19.4744 16.7931 17.207 14.0045 17.207C11.9679 17.207 10.1403 18.4189 9.34871 20.295C9.03438 21.0404 9.3838 21.8994 10.1292 22.2138C10.8742 22.5289 11.7337 22.179 12.048 21.4337C12.3802 20.6455 13.1485 20.1367 14.0045 20.1367C15.1776 20.1367 16.1316 21.09 16.1316 22.2618C16.1316 22.2935 16.1144 22.5937 15.5171 23.3345C15.0013 23.9742 14.2571 24.696 13.4693 25.4601C11.8801 27.0016 10.0792 28.7483 9.18925 30.7461C8.98707 31.1993 9.02827 31.7238 9.29873 32.1396C9.56881 32.5558 10.0312 32.8068 10.5271 32.8068H17.5965C18.4056 32.8068 19.0613 32.151 19.0613 31.3419C19.0613 30.5332 18.4059 29.8771 17.5968 29.8771Z" fill="#63A60E"/>
<path d="M36.6352 22.269C36.145 22.269 35.6739 22.3606 35.2344 22.5273V18.6226C35.2344 17.8135 34.5787 17.1577 33.7696 17.1577C32.9605 17.1577 32.3047 17.8135 32.3047 18.6226V31.3774C32.3047 32.1865 32.9605 32.8422 33.7696 32.8422C34.5787 32.8422 35.2344 32.1865 35.2344 31.3774V27.2754C35.2527 27.1827 35.263 27.087 35.263 26.989C35.263 26.0185 35.8913 25.1987 36.6352 25.1987C37.3794 25.1987 38.0077 26.0185 38.0077 26.989V31.3774C38.0077 32.1865 38.6635 32.8422 39.4726 32.8422C40.2817 32.8422 40.9374 32.1865 40.9374 31.3774V26.989C40.9374 24.3866 39.0076 22.269 36.6352 22.269Z" fill="#63A60E"/>
</g>
<defs>
<clipPath id="clip0_15_116">
<rect width="50" height="50" fill="white"/>
</clipPath>
</defs>
</svg>
