<svg width="32" height="31" viewBox="0 0 32 31" fill="none" xmlns="http://www.w3.org/2000/svg">
<path d="M31.7978 4.03875C31.6226 3.81981 31.3574 3.69238 31.0769 3.69238H6.5095L5.8225 0.7155C5.72581 0.296688 5.35287 0 4.92306 0H0.923063C0.413312 0 0 0.413312 0 0.923125C0 1.43294 0.413312 1.84619 0.923063 1.84619H4.18875L8.852 22.0537C8.94863 22.4726 9.32162 22.7692 9.75144 22.7692H28.2461C28.7559 22.7692 29.1692 22.3559 29.1692 21.8462C29.1692 21.3364 28.7559 20.9231 28.2461 20.9231H10.4858L9.77581 17.8462H28.3078C28.7395 17.8462 29.1136 17.5469 29.2083 17.1257L31.9775 4.81806C32.0391 4.54444 31.9729 4.25775 31.7978 4.03875ZM27.5693 16H9.34975L6.93556 5.5385H29.9231L27.5693 16Z" fill="white"/>
<path d="M13.5384 24C11.6722 24 10.1538 25.5183 10.1538 27.3846C10.1538 29.2509 11.6721 30.7692 13.5384 30.7692C15.4047 30.7692 16.9231 29.2509 16.9231 27.3846C16.9231 25.5183 15.4047 24 13.5384 24ZM13.5384 28.9231C12.6901 28.9231 12 28.2329 12 27.3846C12 26.5363 12.6901 25.8462 13.5384 25.8462C14.3867 25.8462 15.0769 26.5363 15.0769 27.3846C15.0769 28.2329 14.3867 28.9231 13.5384 28.9231Z" fill="white"/>
<path d="M24.6153 24C22.7491 24 21.2307 25.5183 21.2307 27.3846C21.2307 29.2509 22.749 30.7692 24.6153 30.7692C26.4816 30.7692 28 29.2509 28 27.3846C28 25.5183 26.4817 24 24.6153 24ZM24.6153 28.9231C23.767 28.9231 23.0769 28.233 23.0769 27.3847C23.0769 26.5364 23.767 25.8462 24.6153 25.8462C25.4637 25.8462 26.1538 26.5364 26.1538 27.3847C26.1538 28.233 25.4637 28.9231 24.6153 28.9231Z" fill="white"/>
</svg>
