<svg width="32" height="32" viewBox="0 0 32 32" fill="none" xmlns="http://www.w3.org/2000/svg">
<g clip-path="url(#clip0_639_1735)">
<path d="M16.0053 7.78406C11.468 7.78406 7.79468 11.4614 7.79468 15.9947C7.79468 20.5321 11.472 24.2054 16.0053 24.2054C20.5427 24.2054 24.216 20.5281 24.216 15.9947C24.216 11.4574 20.5387 7.78406 16.0053 7.78406ZM16.0053 21.3241C13.06 21.3241 10.676 18.9387 10.676 15.9947C10.676 13.0507 13.0613 10.6654 16.0053 10.6654C18.9493 10.6654 21.3347 13.0507 21.3347 15.9947C21.336 18.9387 18.9507 21.3241 16.0053 21.3241Z" fill="#31352B"/>
<path d="M22.5974 0.101248C19.6534 -0.0360854 12.3614 -0.0294187 9.41473 0.101248C6.82539 0.222581 4.54139 0.847914 2.70006 2.68925C-0.377275 5.76658 0.0160589 9.91325 0.0160589 15.9946C0.0160589 22.2186 -0.330608 26.2692 2.70006 29.2999C5.78939 32.3879 9.99606 31.9839 16.0054 31.9839C22.1707 31.9839 24.2987 31.9879 26.4787 31.1439C29.4427 29.9932 31.6801 27.3439 31.8987 22.5852C32.0374 19.6399 32.0294 12.3492 31.8987 9.40258C31.6347 3.78525 28.6201 0.378581 22.5974 0.101248V0.101248ZM27.2574 27.2639C25.2401 29.2812 22.4414 29.1012 15.9667 29.1012C9.30006 29.1012 6.62673 29.1999 4.67606 27.2439C2.42939 25.0079 2.83606 21.4172 2.83606 15.9732C2.83606 8.60658 2.08006 3.30125 9.47339 2.92258C11.1721 2.86258 11.6721 2.84258 15.9481 2.84258L16.0081 2.88258C23.1134 2.88258 28.6881 2.13858 29.0227 9.53058C29.0987 11.2172 29.1161 11.7239 29.1161 15.9932C29.1147 22.5826 29.2401 25.2719 27.2574 27.2639V27.2639Z" fill="#31352B"/>
<path d="M24.5412 9.37859C25.6009 9.37859 26.4599 8.51957 26.4599 7.45992C26.4599 6.40027 25.6009 5.54126 24.5412 5.54126C23.4816 5.54126 22.6226 6.40027 22.6226 7.45992C22.6226 8.51957 23.4816 9.37859 24.5412 9.37859Z" fill="#31352B"/>
</g>
<defs>
<clipPath id="clip0_639_1735">
<rect width="32" height="32" fill="white"/>
</clipPath>
</defs>
</svg>
