<svg width="33" height="32" viewBox="0 0 33 32" fill="none" xmlns="http://www.w3.org/2000/svg">
<g clip-path="url(#clip0_20_42)">
<path d="M16.4486 7.78394C11.9427 7.78394 8.29486 11.4613 8.29486 15.9946C8.29486 20.5319 11.9467 24.2053 16.4486 24.2053C20.9545 24.2053 24.6024 20.5279 24.6024 15.9946C24.6024 11.4573 20.9506 7.78394 16.4486 7.78394ZM16.4486 21.3239C13.5237 21.3239 11.1562 18.9386 11.1562 15.9946C11.1562 13.0506 13.525 10.6653 16.4486 10.6653C19.3722 10.6653 21.741 13.0506 21.741 15.9946C21.7424 18.9386 19.3736 21.3239 16.4486 21.3239Z" fill="white"/>
<path d="M22.995 0.101248C20.0714 -0.0360854 12.8299 -0.0294187 9.90363 0.101248C7.33224 0.222581 5.06406 0.847914 3.23549 2.68925C0.179476 5.76658 0.570084 9.91325 0.570084 15.9946C0.570084 22.2186 0.225819 26.2692 3.23549 29.2999C6.30342 32.3879 10.4809 31.9839 16.4486 31.9839C22.5713 31.9839 24.6845 31.9879 26.8494 31.1439C29.7929 29.9932 32.0147 27.3439 32.2319 22.5852C32.3696 19.6399 32.3616 12.3492 32.2319 9.40258C31.9697 3.78525 28.9759 0.378581 22.995 0.101248ZM27.6227 27.2639C25.6193 29.2812 22.84 29.1012 16.4102 29.1012C9.78976 29.1012 7.13495 29.1999 5.1978 27.2439C2.9667 25.0079 3.37055 21.4172 3.37055 15.9732C3.37055 8.60658 2.61978 3.30125 9.96189 2.92258C11.6488 2.86258 12.1453 2.84258 16.3917 2.84258L16.4513 2.88258C23.5074 2.88258 29.0434 2.13858 29.3758 9.53058C29.4513 11.2172 29.4685 11.7239 29.4685 15.9932C29.4671 22.5826 29.5916 25.2719 27.6227 27.2639Z" fill="white"/>
<path d="M24.9255 9.37859C25.9778 9.37859 26.8309 8.51957 26.8309 7.45992C26.8309 6.40027 25.9778 5.54126 24.9255 5.54126C23.8732 5.54126 23.0201 6.40027 23.0201 7.45992C23.0201 8.51957 23.8732 9.37859 24.9255 9.37859Z" fill="white"/>
</g>
<defs>
<clipPath id="clip0_20_42">
<rect width="31.7783" height="32" fill="white" transform="translate(0.554199)"/>
</clipPath>
</defs>
</svg>
