<?xml version="1.0" encoding="UTF-8"?>
<svg xmlns="http://www.w3.org/2000/svg" xmlns:xlink="http://www.w3.org/1999/xlink" width="15px" height="20px" viewBox="0 0 15 20" version="1.1">
<g id="surface1">
<path style=" stroke:none;fill-rule:nonzero;fill:rgb(0%,0%,0%);fill-opacity:1;" d="M 6.574219 19.5 C 4.535156 16.992188 0 10.914062 0 7.5 C 0 3.359375 3.359375 0 7.5 0 C 11.640625 0 15 3.359375 15 7.5 C 15 10.914062 10.429688 16.992188 8.425781 19.5 C 7.945312 20.097656 7.054688 20.097656 6.574219 19.5 Z M 7.5 10 C 8.878906 10 10 8.878906 10 7.5 C 10 6.121094 8.878906 5 7.5 5 C 6.121094 5 5 6.121094 5 7.5 C 5 8.878906 6.121094 10 7.5 10 Z M 7.5 10 "/>
</g>
</svg>
