<svg width="49" height="29" viewBox="0 0 49 29" fill="none" xmlns="http://www.w3.org/2000/svg">
<g clip-path="url(#clip0_19_94)">
<path d="M33.933 4.62198e-07C30.192 0.00100046 26.782 1.419 24.212 3.748C21.64 1.422 18.232 0.00300072 14.495 0.00300072C14.464 0.00300072 14.432 0.00300072 14.402 0.00300072C6.444 0.0550007 0 6.529 0 14.498C0 22.499 6.494 28.992 14.494 28.992C18.231 28.992 21.639 27.575 24.21 25.247C23.673 24.762 23.187 24.225 22.728 23.663H25.721C25.27 24.216 24.778 24.734 24.249 25.216H24.247C24.235 25.229 24.222 25.237 24.21 25.248C26.783 27.578 30.195 28.998 33.938 28.997C41.943 28.994 48.43 22.502 48.428 14.498C48.428 14.495 48.428 14.493 48.428 14.491C48.429 6.487 41.938 -0.00199954 33.933 4.62198e-07ZM22.894 5.245H25.649C26.055 5.737 26.432 6.255 26.774 6.797H21.859C22.176 6.279 22.524 5.746 22.894 5.245ZM21.003 8.319H27.61C27.845 8.821 28.053 9.34 28.235 9.872H20.22C20.3 9.722 20.58 9.118 21.003 8.319ZM5.917 18.19L6.796 12.648L4.813 18.19H3.75L3.612 12.648L2.673 18.19H1.184L2.418 10.84H4.67L4.749 15.35L6.27 10.84H8.713L7.496 18.19H5.917ZM11.182 18.178L11.233 17.591C11.209 17.594 10.739 18.3 9.65 18.3C9.08 18.3 8.16 17.989 8.16 16.637C8.16 14.918 9.562 14.348 10.897 14.348C11.107 14.348 11.56 14.386 11.56 14.386C11.56 14.386 11.611 14.281 11.611 13.997C11.611 13.53 11.191 13.466 10.616 13.466C9.603 13.466 8.934 13.737 8.934 13.737L9.158 12.407C9.158 12.407 9.97 12.067 11.027 12.067C11.574 12.067 13.147 12.125 13.147 13.928L12.541 18.178H11.182ZM16.925 16.306C16.925 18.357 14.938 18.269 14.591 18.269C13.296 18.269 12.896 18.09 12.859 18.08L13.065 16.73C13.067 16.718 13.715 16.965 14.436 16.965C14.852 16.965 15.392 16.924 15.392 16.427C15.392 15.683 13.46 15.861 13.46 14.094C13.46 12.535 14.618 12.079 15.76 12.079C16.642 12.079 17.184 12.2 17.184 12.2L16.989 13.562C16.989 13.562 16.152 13.493 15.935 13.493C15.386 13.493 15.087 13.613 15.087 13.997C15.086 14.769 16.925 14.391 16.925 16.306ZM19.311 16.844C19.448 16.844 19.603 16.797 19.709 16.797L19.516 18.108C19.361 18.151 18.922 18.307 18.359 18.311C17.64 18.317 17.129 17.915 17.129 17.003C17.129 16.391 18.006 11.348 18.04 11.315H19.583L19.426 12.217H20.196L19.999 13.67H19.182L18.748 16.347C18.715 16.56 18.774 16.844 19.311 16.844ZM22.705 12.047C24.399 12.047 24.906 13.287 24.906 14.304C24.906 14.711 24.702 15.711 24.702 15.711H21.566C21.566 15.711 21.276 16.946 22.933 16.946C23.71 16.946 24.572 16.566 24.572 16.566L24.3 18.053C24.3 18.053 23.802 18.307 22.67 18.307C21.443 18.307 20.004 17.788 20.004 15.608C20.005 13.719 21.153 12.047 22.705 12.047ZM26.792 22.17H21.65C21.337 21.67 21.045 21.157 20.794 20.618H27.637C27.385 21.154 27.103 21.672 26.792 22.17ZM26.447 18.201H24.863L25.826 12.219H27.263L27.125 13.086C27.125 13.086 27.637 12.143 28.328 12.143C28.529 12.143 28.626 12.163 28.626 12.163C28.421 12.581 28.24 12.964 28.052 13.953C26.98 13.573 26.898 15.646 26.447 18.201ZM32.482 18.108C32.482 18.108 31.652 18.32 31.132 18.32C29.29 18.32 28.355 17.049 28.355 15.124C28.355 12.221 30.088 10.675 31.869 10.675C32.674 10.675 33.607 11.053 33.607 11.053L33.355 12.688C33.355 12.688 32.724 12.247 31.939 12.247C30.889 12.247 29.947 13.249 29.947 15.07C29.947 15.967 30.386 16.803 31.482 16.803C32.003 16.803 32.758 16.424 32.758 16.424L32.482 18.108ZM36.197 18.181L36.249 17.59C36.224 17.593 35.754 18.299 34.666 18.299C34.096 18.299 33.176 17.988 33.176 16.636C33.176 14.917 34.578 14.347 35.912 14.347C36.122 14.347 36.576 14.385 36.576 14.385C36.576 14.385 36.628 14.281 36.628 13.997C36.628 13.53 36.208 13.466 35.632 13.466C34.619 13.466 33.951 13.737 33.951 13.737L34.175 12.407C34.175 12.407 34.987 12.067 36.045 12.067C36.591 12.067 38.165 12.125 38.164 13.928L37.558 18.178C37.557 18.181 36.197 18.181 36.197 18.181ZM39.404 18.201H37.82L38.783 12.219H40.221L40.083 13.086C40.083 13.086 40.596 12.143 41.287 12.143C41.488 12.143 41.584 12.163 41.584 12.163C41.38 12.581 41.197 12.964 41.01 13.953C39.937 13.573 39.855 15.646 39.404 18.201ZM44.133 18.185L44.2 17.634C44.2 17.634 43.688 18.28 42.762 18.28C41.479 18.28 40.85 17.041 40.85 15.775C40.85 13.817 42.028 12.11 43.442 12.11C44.352 12.112 44.933 12.915 44.933 12.915L45.267 10.85L46.814 10.847L45.634 18.185H44.133ZM47.185 17.978C47.144 18.052 47.086 18.109 47.012 18.153C46.939 18.194 46.861 18.215 46.779 18.215C46.699 18.215 46.622 18.194 46.548 18.153C46.474 18.109 46.416 18.052 46.375 17.978C46.333 17.903 46.313 17.827 46.313 17.746C46.313 17.664 46.334 17.586 46.375 17.512C46.416 17.438 46.477 17.378 46.55 17.338C46.626 17.297 46.701 17.276 46.779 17.276C46.859 17.276 46.935 17.297 47.009 17.338C47.085 17.379 47.143 17.436 47.185 17.512C47.228 17.587 47.247 17.665 47.247 17.746C47.247 17.827 47.227 17.904 47.185 17.978Z" fill="white"/>
<path d="M47.0611 22.4009C47.0511 22.3939 47.0421 22.3829 47.0261 22.3769C47.0101 22.3709 46.985 22.3679 46.946 22.3679H46.8521V22.5179H46.952C46.999 22.5179 47.03 22.5139 47.048 22.4969C47.065 22.4829 47.0731 22.4659 47.0731 22.4419C47.0731 22.4259 47.0691 22.4149 47.0611 22.4009Z" fill="white"/>
<path d="M11.0221 15.4949C9.89111 15.4949 9.66211 16.0029 9.66211 16.4259C9.66211 16.6439 9.78711 17.0079 10.2661 17.0079C11.1951 17.0079 11.3881 15.7899 11.3581 15.5309C11.3141 15.5219 11.2861 15.4959 11.0221 15.4949Z" fill="white"/>
<path d="M22.711 13.428C21.87 13.428 21.708 14.385 21.708 14.486H23.421C23.421 14.409 23.582 13.428 22.711 13.428Z" fill="white"/>
<path d="M43.7089 13.595C43.0299 13.595 42.4929 14.383 42.4939 15.58C42.4939 16.31 42.7539 16.778 43.3099 16.778C44.1459 16.778 44.5489 15.687 44.5489 14.874C44.5489 13.977 44.2639 13.595 43.7089 13.595Z" fill="white"/>
<path d="M47.1149 17.552C47.0799 17.49 47.0309 17.442 46.9689 17.407C46.9069 17.372 46.8439 17.355 46.7779 17.355C46.7139 17.355 46.6489 17.373 46.5869 17.407C46.5249 17.439 46.4759 17.489 46.4409 17.552C46.4059 17.615 46.3879 17.682 46.3879 17.747C46.3879 17.814 46.4059 17.88 46.4389 17.941C46.4759 18.003 46.5229 18.05 46.5849 18.087C46.6469 18.121 46.7109 18.141 46.7779 18.141C46.8449 18.141 46.9109 18.121 46.9709 18.087C47.0329 18.052 47.0809 18.004 47.1169 17.941C47.1519 17.879 47.1679 17.814 47.1679 17.747C47.1679 17.681 47.1499 17.615 47.1149 17.552ZM46.8979 18.004L46.8529 17.926C46.8179 17.863 46.7899 17.823 46.7689 17.808C46.7519 17.795 46.7319 17.789 46.7029 17.789H46.6569V18.003H46.5729V17.499H46.7479C46.8069 17.499 46.8509 17.504 46.8759 17.515C46.9009 17.524 46.9229 17.541 46.9399 17.563C46.9569 17.585 46.9629 17.61 46.9629 17.637C46.9629 17.674 46.9489 17.705 46.9229 17.733C46.8969 17.762 46.8609 17.774 46.8189 17.779C46.8389 17.787 46.8519 17.796 46.8619 17.805C46.8829 17.826 46.9069 17.856 46.9359 17.904L46.9979 18.004H46.8979Z" fill="white"/>
<path d="M36.039 15.4949C34.908 15.4949 34.679 16.0029 34.679 16.4259C34.679 16.6439 34.803 17.0079 35.283 17.0079C36.212 17.0079 36.404 15.7899 36.375 15.5309C36.33 15.5219 36.302 15.4959 36.039 15.4949Z" fill="white"/>
<path d="M46.864 17.6019C46.856 17.5919 46.845 17.5839 46.83 17.5769C46.813 17.5719 46.788 17.5669 46.748 17.5669V17.5679H46.657V17.7199H46.756C46.803 17.7199 46.834 17.7139 46.853 17.6989C46.868 17.6839 46.877 17.6649 46.877 17.6429C46.877 17.6259 46.873 17.6159 46.864 17.6019Z" fill="white"/>
</g>
<defs>
<clipPath id="clip0_19_94">
<rect width="49" height="29" fill="white"/>
</clipPath>
</defs>
</svg>
