<?xml version="1.0" encoding="UTF-8"?>
<svg xmlns="http://www.w3.org/2000/svg" xmlns:xlink="http://www.w3.org/1999/xlink" width="20px" height="20px" viewBox="0 0 20 20" version="1.1">
<g id="surface1">
<path style=" stroke:none;fill-rule:nonzero;fill:rgb(0%,0%,0%);fill-opacity:1;" d="M 19.96875 15.117188 L 19.0625 19.054688 C 18.933594 19.609375 18.445312 20 17.871094 20 C 8.015625 20 0 11.984375 0 2.128906 C 0 1.554688 0.390625 1.066406 0.945312 0.9375 L 4.882812 0.03125 C 5.457031 -0.101562 6.042969 0.195312 6.28125 0.738281 L 8.097656 4.976562 C 8.3125 5.476562 8.167969 6.058594 7.746094 6.402344 L 5.644531 8.089844 C 6.972656 10.792969 9.171875 12.992188 11.875 14.320312 L 13.597656 12.21875 C 13.9375 11.796875 14.523438 11.652344 15.019531 11.867188 L 19.257812 13.683594 C 19.769531 13.953125 20.101562 14.546875 19.96875 15.117188 Z M 19.96875 15.117188 "/>
</g>
</svg>
