<svg width="50" height="50" viewBox="0 0 50 50" fill="none" xmlns="http://www.w3.org/2000/svg">
<path d="M48.5118 34.3921C49.2823 34.3502 49.8947 33.7132 49.8947 32.9314C49.8947 28.7161 46.5111 25.4142 42.1917 25.4142H40.7643L39.0195 17.1328C40.7031 16.4013 41.884 14.7214 41.884 12.77C41.884 10.1487 39.754 8.01605 37.1358 8.01605H30.3863C29.5783 8.01605 28.9232 8.67191 28.9232 9.4809V11.3051H25.3268C24.5188 11.3051 23.8637 11.961 23.8637 12.77C23.8637 13.5789 24.5188 14.2348 25.3268 14.2348H28.9232V16.059C28.9232 16.868 29.5783 17.5239 30.3863 17.5239H31.0359C29.8246 18.9564 29.0919 20.8069 29.0919 22.8265V31.1623C29.0919 31.2051 29.0572 31.2398 29.0146 31.2398H23.1044C23.0703 31.2398 23.0398 31.217 23.0302 31.1843L21.4369 25.7935C22.721 25.45 23.6698 24.2757 23.6698 22.8832C23.6698 19.5769 20.9832 16.887 17.681 16.887H4.49863C2.01816 16.887 0 18.9076 0 21.3911C0 23.6617 1.68682 25.5441 3.87148 25.8507C1.55391 27.9263 0.0924805 30.9415 0.0924805 34.2925V38.853C0.0924805 39.662 0.747559 40.3178 1.55557 40.3178H2.82148C3.50293 43.7202 6.50957 46.2914 10.1054 46.2914C13.7012 46.2914 16.7078 43.7202 17.3893 40.3178H35.2867C35.9682 43.7202 38.9748 46.2914 42.5706 46.2914C46.6671 46.2914 49.9999 42.9545 49.9999 38.853C50 37.1807 49.4457 35.6359 48.5118 34.3921ZM46.729 31.4665H43.4354C43.1515 31.4334 42.8633 31.4145 42.5707 31.4145C42.0463 31.4145 41.5348 31.47 41.0408 31.5739V28.3439H42.1918C44.3346 28.3439 46.1062 29.6336 46.729 31.4665ZM31.8493 10.9456H37.1358C38.1405 10.9456 38.9579 11.764 38.9579 12.7699C38.9579 13.7757 38.1405 14.5941 37.1358 14.5941H31.8493V10.9456ZM23.1045 34.1694H29.0146C30.6708 34.1694 32.0181 32.8204 32.0181 31.1622V22.8264C32.0181 20.3086 33.7843 18.1959 36.1414 17.6654L38.1147 27.0316V32.9049C36.6829 33.9829 35.6518 35.5662 35.2868 37.388H20.7409C20.0576 32.1324 15.7176 28.2002 10.3006 28.2002C7.88506 28.2002 5.7165 28.9893 4.00557 30.3457C5.41885 27.7 8.20518 25.8954 11.4056 25.8954H18.4159L20.2247 32.0156C20.5993 33.2837 21.7836 34.1694 23.1045 34.1694ZM3.1375 37.388C3.39316 35.8296 4.05889 34.4239 5.07695 33.3346C6.40576 31.9128 8.26084 31.1298 10.3004 31.1298C14.074 31.1298 17.1226 33.7818 17.7771 37.3879H3.1375V37.388ZM4.49863 22.9658C3.63154 22.9658 2.92607 22.2594 2.92607 21.3911C2.92607 20.5229 3.63154 19.8165 4.49863 19.8165H17.681C19.3698 19.8165 20.7437 21.1921 20.7437 22.883C20.7313 22.9433 20.6348 22.9831 20.4552 22.9656C19.238 22.9656 19.5859 22.9656 19.3324 22.9656C17.5843 22.9658 4.50713 22.9658 4.49863 22.9658ZM10.1054 43.3617C8.13437 43.3617 6.45625 42.0868 5.84746 40.3177H14.3633C13.7545 42.0868 12.0764 43.3617 10.1054 43.3617ZM42.5707 43.3617C40.0876 43.3617 38.0675 41.339 38.0675 38.8529C38.0675 36.3667 40.0877 34.3442 42.5707 34.3442C45.0538 34.3442 47.0739 36.3667 47.0739 38.8529C47.0739 41.339 45.0537 43.3617 42.5707 43.3617Z" fill="#63A60E"/>
<path d="M42.5707 40.3275C43.3841 40.3275 44.0435 39.6673 44.0435 38.853C44.0435 38.0386 43.3841 37.3785 42.5707 37.3785C41.7573 37.3785 41.0979 38.0386 41.0979 38.853C41.0979 39.6673 41.7573 40.3275 42.5707 40.3275Z" fill="#63A60E"/>
<path d="M1.52443 12.6409H14.6463C15.4543 12.6409 16.1094 11.985 16.1094 11.176C16.1094 10.367 15.4543 9.71118 14.6463 9.71118H1.52443C0.716418 9.71118 0.0613403 10.367 0.0613403 11.176C0.0613403 11.985 0.716418 12.6409 1.52443 12.6409Z" fill="#63A60E"/>
<path d="M6.38497 6.63824H19.6199C20.4279 6.63824 21.083 5.98238 21.083 5.1734C21.083 4.36442 20.4279 3.70856 19.6199 3.70856H6.38497C5.57696 3.70856 4.92188 4.36442 4.92188 5.1734C4.92188 5.98238 5.57696 6.63824 6.38497 6.63824Z" fill="#63A60E"/>
</svg>
