<svg width="55" height="60" viewBox="0 0 55 60" fill="none" xmlns="http://www.w3.org/2000/svg">
<path opacity="0.2" d="M54.6484 59.0669C54.6484 58.5552 43.1741 58.1338 29.0368 58.1338C14.8994 58.1338 3.42517 58.5552 3.42517 59.0669C3.42517 59.5786 14.8994 60 29.0368 60C43.207 60 54.6484 59.5786 54.6484 59.0669Z" fill="#5D5D5D"/>
<path d="M29.3984 11.8098C40.5439 11.8098 49.5852 20.0873 49.5852 30.2913V48.7727H29.3984C18.2529 48.7727 9.21161 40.4952 9.21161 30.2913V11.8098H29.3984Z" fill="white"/>
<path opacity="0.3" d="M46.692 20.7797C45.0152 22.5556 43.996 24.8733 43.996 27.4017C43.996 31.1642 46.2317 34.4451 49.5523 36.221V30.2913C49.5523 26.8298 48.5331 23.579 46.692 20.7797Z" fill="white"/>
<path d="M38.7685 13.9469C35.6122 15.6024 33.5081 18.7027 33.5081 22.2846C33.5081 27.5822 38.2096 31.8866 43.996 31.8866C46.0344 31.8866 47.9413 31.3448 49.5523 30.4116V30.2913C49.5523 23.1876 45.1796 17.0171 38.7685 13.9469Z" fill="white"/>
<path opacity="0.5" d="M22.9215 15.3909C17.7269 15.3909 12.9596 17.0464 9.21161 19.8457V30.3205C9.21161 40.5245 18.2529 48.802 29.3984 48.802H39.0644C42.5823 45.2502 44.7193 40.5546 44.7193 35.3773C44.7193 24.3306 34.9547 15.3909 22.9215 15.3909Z" fill="#F8F6EC"/>
<path d="M49.5523 48.7426L29.3984 48.7727C18.2529 48.7727 9.21161 40.4951 9.21161 30.2912V11.8398L49.5523 48.7426Z" fill="white"/>
<path opacity="0.3" d="M12.335 18.4318C12.335 32.4584 24.7627 43.8062 40.0507 43.8062C41.3658 43.8062 42.648 43.7159 43.8974 43.5654L12.598 14.9402C12.4336 16.084 12.335 17.2579 12.335 18.4318Z" fill="white"/>
<path opacity="0.3" d="M49.5523 48.7727L9.37601 11.9904C14.1104 18.4619 19.568 25.0237 25.1243 30.4417C29.4642 34.6557 41.9905 44.077 49.5523 48.7727Z" fill="white"/>
<path opacity="0.3" d="M22.3955 23.8799L9.21161 11.8398V30.3213C9.21161 38.4784 14.9981 45.4014 22.9873 47.8396C19.568 44.679 17.4639 40.3446 17.4639 35.5888C17.4639 31.0738 19.3379 26.9802 22.3955 23.8799Z" fill="white"/>
<path opacity="0.3" d="M40.3466 40.3447C36.9274 44.1674 31.7327 46.6356 25.9134 46.6356C22.0338 46.6356 18.4173 45.552 15.4254 43.6858C19.042 46.8464 23.9407 48.8029 29.3655 48.8029H49.5523V48.7728L40.3466 40.3447Z" fill="white"/>
<path opacity="0.3" d="M10.3952 22.8866C10.3952 19.9067 10.9541 17.0171 12.0062 14.3683L9.21161 11.8398V30.3213C9.21161 40.5252 18.2529 48.8028 29.3984 48.8028H49.5852V48.7727L47.5797 46.9366C44.6536 47.8998 41.5302 48.4115 38.2425 48.4115C22.8558 48.3814 10.3952 36.9734 10.3952 22.8866Z" fill="#F8F6EC"/>
<path d="M49.2235 52.3546C50.6372 51.9934 52.1167 52.776 52.4784 54.0703C52.8729 55.3646 52.0181 56.7191 50.5715 57.0502C49.1578 57.4114 47.6783 56.6288 47.3166 55.3345C46.955 54.0402 47.8098 52.7158 49.2235 52.3546ZM48.6975 50.5185C46.1659 51.1506 44.6535 53.4984 45.344 55.8161C46.0015 58.1338 48.5988 59.5184 51.1304 58.8863C53.662 58.2542 55.1743 55.8763 54.4839 53.5887C53.8264 51.271 51.229 49.9165 48.6975 50.5185Z" fill="white"/>
<path opacity="0.5" d="M52.0506 56.1768C51.6889 56.5982 51.1958 56.9294 50.604 57.0799C49.1902 57.4411 47.7108 56.6584 47.3491 55.3641C47.0861 54.4009 47.4477 53.4377 48.2368 52.8658C47.8423 52.3541 47.5135 51.7822 47.1847 51.2103C45.6066 52.2337 44.8175 54.0698 45.3436 55.8758C46.0011 58.1936 48.5984 59.5782 51.13 58.9461C52.3136 58.6451 53.267 57.9829 53.8917 57.1099C53.267 56.8089 52.6424 56.5079 52.0506 56.1768Z" fill="white"/>
<path d="M10.1646 52.3546C11.5783 52.0235 13.0578 52.8061 13.4195 54.1004C13.7811 55.3947 12.9263 56.7492 11.5126 57.0803C10.0989 57.4114 8.61937 56.6288 8.25772 55.3345C7.89606 54.0402 8.75088 52.6857 10.1646 52.3546ZM9.63857 50.5185C7.107 51.1205 5.59464 53.4984 6.25219 55.8161C6.90974 58.1338 9.50706 59.5184 12.0386 58.9164C14.5702 58.3144 16.0826 55.9365 15.4579 53.6188C14.7675 51.3011 12.1701 49.9165 9.63857 50.5185Z" fill="white"/>
<path opacity="0.5" d="M12.9596 56.207C12.598 56.6284 12.1048 56.9595 11.513 57.0799C10.0993 57.411 8.61978 56.6284 8.25813 55.3341C7.99511 54.3709 8.38964 53.4077 9.14582 52.8358C8.75129 52.3241 8.42252 51.7522 8.12662 51.1803C6.5485 52.1736 5.72656 54.0097 6.2526 55.8157C6.91015 58.1334 9.50747 59.518 12.039 58.916C13.2226 58.6451 14.209 57.9528 14.8008 57.0799C14.1432 56.8391 13.5514 56.5381 12.9596 56.207Z" fill="white"/>
<path d="M10.4938 10.5455C9.86915 10.5455 9.34311 10.0639 9.34311 9.49205C9.34311 7.02384 8.58693 5.15763 7.14031 3.92353C4.80601 1.90682 1.28812 2.11752 1.25524 2.11752C0.630565 2.17772 0.071647 1.72622 0.00589198 1.15432C-0.0598631 0.582418 0.4333 0.0707164 1.05797 0.0105162C1.25524 0.0105162 5.59507 -0.290485 8.68556 2.32822C10.6582 3.98373 11.6445 6.39174 11.6445 9.46194C11.6445 10.0639 11.1514 10.5455 10.4938 10.5455Z" fill="white"/>
</svg>
