<svg width="23" height="23" viewBox="0 0 23 23" fill="none" xmlns="http://www.w3.org/2000/svg">
<path d="M21.4627 16.5887L18.2687 13.3933C17.8397 12.9665 17.2653 12.7314 16.6515 12.7314C16.0128 12.7314 15.4097 12.9829 14.9537 13.4392L13.7104 14.6822C12.7443 14.1452 11.4602 13.4066 10.127 12.0735C8.79538 10.7414 8.05671 9.46105 7.51697 8.48972L8.76146 7.24613C9.68672 6.31895 9.70565 4.83146 8.80379 3.93043L5.6104 0.736948C5.18265 0.308006 4.60826 0.0717773 3.99291 0.0717773C3.36842 0.0717773 2.77767 0.312212 2.32432 0.749838C2.05006 0.970709 0.673731 2.18568 0.160774 4.69131C-0.55742 8.19845 1.09271 11.5728 5.85641 16.3385C11.1779 21.6583 15.7208 22.0718 16.9864 22.0718C17.2499 22.0718 17.4089 22.0555 17.4513 22.0506C19.9331 21.7597 20.8217 20.6575 21.4705 19.8527C22.3112 18.8097 22.3082 17.4373 21.4627 16.5887ZM20.4029 18.992C19.793 19.7484 19.2171 20.4628 17.2918 20.6885C17.2908 20.6886 17.1854 20.7004 16.9864 20.7004C15.8541 20.7004 11.7748 20.3159 6.82611 15.3688C2.43311 10.974 0.891219 7.96012 1.50419 4.9663C1.9516 2.78082 3.13942 1.8519 3.18558 1.81662L3.22654 1.78636L3.26247 1.75034C3.46076 1.55223 3.72012 1.44307 3.99282 1.44307C4.24112 1.44307 4.47076 1.53614 4.64007 1.706L7.83419 4.90021C8.2017 5.26735 8.18214 5.88516 7.79113 6.27699L6.38373 7.68321L6.3606 7.70744C5.99382 8.11142 6.03697 8.65738 6.23901 9.01291C6.82199 10.065 7.62054 11.5058 9.15713 13.0429C10.6886 14.5743 12.1274 15.3723 13.1765 15.9541C13.2815 16.0131 13.4984 16.112 13.7698 16.112C14.0903 16.112 14.3846 15.9764 14.6025 15.7291L15.9233 14.4086C16.1205 14.2113 16.379 14.1026 16.6514 14.1026C16.9002 14.1026 17.131 14.196 17.3 14.364L20.4919 17.5573C20.8974 17.9642 20.73 18.5863 20.4029 18.992Z" fill="white"/>
<path d="M13.3881 3.43156C14.5663 3.56714 15.9535 4.28076 16.9221 5.24954C17.8999 6.22727 18.6152 7.62855 18.7444 8.81948C18.7825 9.17081 19.0796 9.43117 19.4252 9.43117C19.4499 9.43117 19.4749 9.4298 19.5 9.42715C19.8765 9.38628 20.1485 9.04803 20.1077 8.67156C19.9443 7.16615 19.0952 5.48339 17.8918 4.27994C16.6997 3.08773 15.0341 2.24073 13.5449 2.06931C13.1689 2.02571 12.8287 2.29594 12.7854 2.67204C12.7421 3.04815 13.0118 3.38823 13.3881 3.43156Z" fill="white"/>
<path d="M12.7476 6.30376C13.3847 6.37717 14.2666 6.84981 14.8443 7.42749C15.4269 8.0102 15.9004 8.90045 15.9702 9.5445C16.0083 9.89592 16.3054 10.1563 16.651 10.1563C16.6757 10.1563 16.7006 10.1549 16.7257 10.1523C17.1021 10.1114 17.3743 9.77314 17.3334 9.39667C17.2142 8.29708 16.4842 7.12827 15.8138 6.4578C15.1493 5.79327 13.992 5.06676 12.9043 4.94142C12.5278 4.89763 12.1881 5.16796 12.1447 5.54406C12.1015 5.92025 12.3714 6.26042 12.7476 6.30376Z" fill="white"/>
</svg>
