<svg width="25" height="32" viewBox="0 0 25 32" fill="none" xmlns="http://www.w3.org/2000/svg">
<path d="M22.6785 19.9427C21.6076 18.3799 20.213 17.0955 18.5934 16.1643C20.4901 14.467 21.686 12.0018 21.686 9.26225C21.6861 4.15505 17.5311 0 12.4238 0C7.31656 0 3.1615 4.15505 3.1615 9.26225C3.1615 12.0018 4.35743 14.4669 6.25416 16.1643C4.63447 17.0956 3.23995 18.3799 2.16902 19.9427C0.750061 22.0134 0 24.4315 0 26.9359V32H24.8476V26.9359C24.8477 24.4315 24.0976 22.0133 22.6785 19.9427ZM5.10099 9.26225C5.10099 5.22444 8.38604 1.93939 12.4239 1.93939C16.4617 1.93939 19.7467 5.22444 19.7467 9.26225C19.7467 13.3002 16.4617 16.5852 12.4239 16.5852C8.38604 16.5852 5.10099 13.3002 5.10099 9.26225ZM1.93939 30.0606V26.9359C1.93939 22.8273 4.31922 19.1418 8.04034 17.4197C9.34604 18.1242 10.839 18.5245 12.4238 18.5245C14.0085 18.5245 15.5015 18.1241 16.8072 17.4197C20.5284 19.1417 22.9081 22.8273 22.9081 26.9359V30.0606H1.93939Z" fill="white"/>
</svg>
