<svg width="93" height="29" viewBox="0 0 93 29" fill="none" xmlns="http://www.w3.org/2000/svg">
<path d="M37.1087 0.473877L32.3987 28.0548H39.9317L44.6456 0.473877H37.1087Z" fill="white"/>
<path d="M26.0828 0.504823L18.7047 19.3142L17.9181 16.4742C16.463 13.0522 12.3323 8.13763 7.48273 5.04043L14.2291 28.0414L22.2001 28.0278L34.0634 0.499023L26.0828 0.504823Z" fill="white"/>
<path d="M15.0582 2.47853C14.6204 0.79846 13.3513 0.297726 11.7761 0.237793H0.096875L0 0.78686C9.08881 2.987 15.1028 8.2882 17.5983 14.6624L15.0582 2.47853Z" fill="white"/>
<path d="M59.9133 5.76133C62.3778 5.72267 64.1641 6.26013 65.5514 6.81693L66.2314 7.13593L67.2506 1.15806C65.7587 0.599331 63.4201 0 60.5023 0C53.0584 0 47.8116 3.741 47.7709 9.10213C47.7225 13.0635 51.5084 15.2753 54.3681 16.5957C57.3034 17.9491 58.2877 18.8094 58.2741 20.0177C58.2509 21.8641 55.9336 22.7109 53.7694 22.7109C50.7528 22.7109 49.1504 22.2952 46.6763 21.2667L45.7056 20.8259L44.6458 26.999C46.4089 27.7704 49.6619 28.4335 53.039 28.4683C60.9576 28.4683 66.1036 24.7718 66.1578 19.0433C66.1908 15.9094 64.1816 13.5179 59.828 11.5555C57.193 10.2757 55.581 9.425 55.5965 8.13353C55.5965 6.98707 56.9644 5.76133 59.9133 5.76133Z" fill="white"/>
<path d="M86.583 0.504639H80.7628C78.9551 0.504639 77.6105 0.995705 76.8161 2.79371L65.6309 28.0701H73.5417C73.5417 28.0701 74.8321 24.6713 75.1247 23.927C75.9907 23.927 83.6768 23.9386 84.7715 23.9386C84.9962 24.9014 85.6899 28.0701 85.6899 28.0701H92.6784L86.583 0.504639ZM77.2927 18.2816C77.9127 16.6982 80.2939 10.5734 80.2939 10.5734C80.2532 10.6488 80.9081 8.97845 81.2975 7.94025L81.8052 10.3182C81.8052 10.3182 83.2486 16.9032 83.5509 18.2816H77.2927Z" fill="white"/>
</svg>
