<svg width="32" height="24" viewBox="0 0 32 24" fill="none" xmlns="http://www.w3.org/2000/svg">
<path d="M31.2919 3.90543L31.3319 4.16677C30.9452 2.79477 29.9012 1.7361 28.5746 1.35077L28.5466 1.3441C26.0519 0.666766 16.0132 0.666766 16.0132 0.666766C16.0132 0.666766 5.9999 0.653433 3.4799 1.3441C2.1279 1.7361 1.08257 2.79477 0.702571 4.13877L0.695904 4.16677C-0.236096 9.03477 -0.242763 14.8841 0.737237 20.0961L0.695904 19.8321C1.08257 21.2041 2.12657 22.2628 3.45324 22.6481L3.48124 22.6548C5.97324 23.3334 16.0146 23.3334 16.0146 23.3334C16.0146 23.3334 26.0266 23.3334 28.5479 22.6548C29.9012 22.2628 30.9466 21.2041 31.3266 19.8601L31.3332 19.8321C31.7572 17.5681 31.9999 14.9628 31.9999 12.3014C31.9999 12.2041 31.9999 12.1054 31.9986 12.0068C31.9999 11.9161 31.9999 11.8081 31.9999 11.7001C31.9999 9.03743 31.7572 6.4321 31.2919 3.90543V3.90543ZM12.8106 16.8681V7.1441L21.1652 12.0134L12.8106 16.8681Z" fill="#31352B"/>
</svg>
