<svg width="32" height="32" viewBox="0 0 32 32" fill="none" xmlns="http://www.w3.org/2000/svg">
<g clip-path="url(#clip0_20_48)">
<path d="M31.2392 7.90543L31.2789 8.16677C30.8949 6.79477 29.8581 5.7361 28.5407 5.35077L28.5128 5.3441C26.0355 4.66677 16.0664 4.66677 16.0664 4.66677C16.0664 4.66677 6.12239 4.65343 3.61985 5.3441C2.27722 5.7361 1.23913 6.79477 0.861762 8.13877L0.855142 8.16677C-0.0704011 13.0348 -0.0770217 18.8841 0.896189 24.0961L0.855142 23.8321C1.23913 25.2041 2.2759 26.2628 3.59337 26.6481L3.62118 26.6548C6.09591 27.3334 16.0677 27.3334 16.0677 27.3334C16.0677 27.3334 26.0103 27.3334 28.5142 26.6548C29.8581 26.2628 30.8962 25.2041 31.2736 23.8601L31.2802 23.8321C31.7013 21.5681 31.9423 18.9628 31.9423 16.3014C31.9423 16.2041 31.9423 16.1054 31.9409 16.0068C31.9423 15.9161 31.9423 15.8081 31.9423 15.7001C31.9423 13.0374 31.7013 10.4321 31.2392 7.90543ZM12.8859 20.8681V11.1441L21.1827 16.0134L12.8859 20.8681Z" fill="white"/>
</g>
<defs>
<clipPath id="clip0_20_48">
<rect width="31.7783" height="32" fill="white" transform="translate(0.16394)"/>
</clipPath>
</defs>
</svg>
