<svg width="200" height="60" viewBox="0 0 200 60" fill="none" xmlns="http://www.w3.org/2000/svg">
<path d="M78.9008 30.18C76.7915 30.18 75.0368 29.928 73.6368 29.424C72.2555 28.92 71.2195 28.0893 70.5288 26.932C69.8568 25.756 69.5208 24.188 69.5208 22.228C69.5208 20.2307 69.8662 18.6627 70.5568 17.524C71.2662 16.3853 72.3115 15.5733 73.6928 15.088C75.0928 14.6027 76.8288 14.36 78.9008 14.36C81.0288 14.36 82.7835 14.612 84.1648 15.116C85.5462 15.6013 86.5728 16.4227 87.2448 17.58C87.9355 18.7187 88.2808 20.268 88.2808 22.228C88.2808 24.2253 87.9262 25.812 87.2168 26.988C86.5262 28.1453 85.4808 28.9667 84.0808 29.452C82.6995 29.9373 80.9728 30.18 78.9008 30.18ZM78.9008 27.856C80.1702 27.856 81.2155 27.7813 82.0368 27.632C82.8768 27.464 83.5208 27.184 83.9688 26.792C84.4355 26.3813 84.7528 25.8213 84.9208 25.112C85.1075 24.384 85.2008 23.4507 85.2008 22.312C85.2008 21.1547 85.1075 20.212 84.9208 19.484C84.7528 18.7373 84.4355 18.1587 83.9688 17.748C83.5208 17.3373 82.8768 17.0573 82.0368 16.908C81.2155 16.74 80.1702 16.656 78.9008 16.656C77.6502 16.656 76.6142 16.74 75.7928 16.908C74.9715 17.0573 74.3275 17.3373 73.8608 17.748C73.3942 18.1587 73.0675 18.7373 72.8808 19.484C72.7128 20.212 72.6288 21.1547 72.6288 22.312C72.6288 23.4507 72.7222 24.384 72.9088 25.112C73.0955 25.8213 73.4222 26.3813 73.8888 26.792C74.3555 27.184 74.9995 27.464 75.8208 27.632C76.6422 27.7813 77.6688 27.856 78.9008 27.856ZM77.4168 32.028L77.5008 23.04L77.4168 12.484H80.4128L80.3008 21.108L80.4128 32L77.4168 32.028ZM92.2249 32L92.3369 22.928L92.2249 12.484C92.2249 12.484 92.4302 12.4653 92.8409 12.428C93.2702 12.3907 93.8209 12.344 94.4929 12.288C95.1649 12.232 95.9022 12.1853 96.7049 12.148C97.5076 12.1107 98.2822 12.092 99.0289 12.092C100.802 12.092 102.174 12.652 103.145 13.772C104.134 14.8733 104.629 16.5347 104.629 18.756C104.629 20.1373 104.452 21.2853 104.097 22.2C103.742 23.096 103.266 23.796 102.669 24.3C102.09 24.804 101.428 25.168 100.681 25.392C99.9529 25.5973 99.2062 25.7 98.4409 25.7C97.8249 25.7 97.1902 25.6813 96.5369 25.644C95.8836 25.588 95.4356 25.56 95.1929 25.56V32H92.2249ZM98.5809 23.264C99.1409 23.264 99.5889 23.2267 99.9249 23.152C100.28 23.0773 100.56 22.9467 100.765 22.76C101.045 22.48 101.232 21.9853 101.325 21.276C101.437 20.5667 101.493 19.6333 101.493 18.476C101.493 17.5427 101.446 16.8333 101.353 16.348C101.278 15.844 101.176 15.4893 101.045 15.284C100.914 15.06 100.784 14.9107 100.653 14.836C100.485 14.7053 100.205 14.6027 99.8129 14.528C99.4209 14.4347 98.9542 14.388 98.4129 14.388C97.7782 14.388 97.1716 14.416 96.5929 14.472C96.0142 14.528 95.5476 14.584 95.1929 14.64V22.956C95.3796 22.9747 95.7996 23.0307 96.4529 23.124C97.1249 23.2173 97.8342 23.264 98.5809 23.264ZM108.823 32V12.484H119.071V15.06L110.475 14.948L111.847 13.632L111.623 21.92L110.335 20.828H118.371V23.32H110.335L111.623 22.172L111.847 30.824L110.475 29.48L119.071 29.424V32H108.823ZM123.533 32V12.484H126.501L126.417 21.948V30.768L125.073 29.424H133.837L132.493 30.768L132.521 22.088L132.465 12.484H135.433L135.349 22.088L135.405 30.768L134.061 29.424H142.741L141.397 30.768V22.004L141.313 12.484H144.281V32H123.533ZM156.392 32.392C155.365 32.392 154.395 32.2427 153.48 31.944C152.565 31.6453 151.753 31.1227 151.044 30.376C150.353 29.6293 149.812 28.5933 149.42 27.268C149.028 25.9427 148.832 24.2533 148.832 22.2C148.832 20.1467 149.028 18.4667 149.42 17.16C149.812 15.8347 150.353 14.808 151.044 14.08C151.753 13.3333 152.565 12.82 153.48 12.54C154.395 12.2413 155.365 12.092 156.392 12.092C157.419 12.092 158.38 12.2413 159.276 12.54C160.191 12.82 160.993 13.3333 161.684 14.08C162.393 14.808 162.944 15.8253 163.336 17.132C163.728 18.4387 163.924 20.128 163.924 22.2C163.924 24.2533 163.728 25.9427 163.336 27.268C162.944 28.5933 162.393 29.6293 161.684 30.376C160.993 31.1227 160.191 31.6453 159.276 31.944C158.38 32.2427 157.419 32.392 156.392 32.392ZM156.392 29.732C157.139 29.732 157.792 29.648 158.352 29.48C158.912 29.312 159.369 28.976 159.724 28.472C160.097 27.9493 160.368 27.1933 160.536 26.204C160.723 25.2147 160.816 23.8987 160.816 22.256C160.816 20.632 160.732 19.3253 160.564 18.336C160.396 17.328 160.135 16.572 159.78 16.068C159.425 15.5453 158.959 15.1907 158.38 15.004C157.82 14.8173 157.157 14.724 156.392 14.724C155.589 14.724 154.908 14.8173 154.348 15.004C153.807 15.1907 153.359 15.5453 153.004 16.068C152.649 16.572 152.388 17.328 152.22 18.336C152.052 19.3253 151.968 20.6413 151.968 22.284C151.968 23.908 152.052 25.2147 152.22 26.204C152.388 27.1933 152.649 27.9493 153.004 28.472C153.377 28.976 153.844 29.312 154.404 29.48C154.964 29.648 155.627 29.732 156.392 29.732ZM179.295 32L171.539 21.892L178.735 12.484H182.319L174.899 21.724V21.892L183.047 32H179.295ZM168.487 32L168.571 22.088L168.487 12.484H171.483V32H168.487Z" fill="white"/>
<path d="M82.2804 50.168C81.8404 50.168 81.4244 50.104 81.0324 49.976C80.6404 49.848 80.2924 49.624 79.9884 49.304C79.6924 48.984 79.4604 48.54 79.2924 47.972C79.1244 47.404 79.0404 46.68 79.0404 45.8C79.0404 44.92 79.1244 44.2 79.2924 43.64C79.4604 43.072 79.6924 42.632 79.9884 42.32C80.2924 42 80.6404 41.78 81.0324 41.66C81.4244 41.532 81.8404 41.468 82.2804 41.468C82.7204 41.468 83.1324 41.532 83.5164 41.66C83.9084 41.78 84.2524 42 84.5484 42.32C84.8524 42.632 85.0884 43.068 85.2564 43.628C85.4244 44.188 85.5084 44.912 85.5084 45.8C85.5084 46.68 85.4244 47.404 85.2564 47.972C85.0884 48.54 84.8524 48.984 84.5484 49.304C84.2524 49.624 83.9084 49.848 83.5164 49.976C83.1324 50.104 82.7204 50.168 82.2804 50.168ZM82.2804 49.028C82.6004 49.028 82.8804 48.992 83.1204 48.92C83.3604 48.848 83.5564 48.704 83.7084 48.488C83.8684 48.264 83.9844 47.94 84.0564 47.516C84.1364 47.092 84.1764 46.528 84.1764 45.824C84.1764 45.128 84.1404 44.568 84.0684 44.144C83.9964 43.712 83.8844 43.388 83.7324 43.172C83.5804 42.948 83.3804 42.796 83.1324 42.716C82.8924 42.636 82.6084 42.596 82.2804 42.596C81.9364 42.596 81.6444 42.636 81.4044 42.716C81.1724 42.796 80.9804 42.948 80.8284 43.172C80.6764 43.388 80.5644 43.712 80.4924 44.144C80.4204 44.568 80.3844 45.132 80.3844 45.836C80.3844 46.532 80.4204 47.092 80.4924 47.516C80.5644 47.94 80.6764 48.264 80.8284 48.488C80.9884 48.704 81.1884 48.848 81.4284 48.92C81.6684 48.992 81.9524 49.028 82.2804 49.028ZM87.4638 50V41.636H88.7358L88.6998 45.608L88.1358 45.188H92.5638L91.9998 45.608L91.9638 41.636H93.2358V50H91.9638L91.9998 45.872L92.5638 46.292H88.1358L88.6998 45.872L88.7358 50H87.4638ZM94.8649 50.168L94.6489 49.22C94.7609 49.204 94.8649 49.188 94.9609 49.172C95.0569 49.148 95.1369 49.124 95.2009 49.1C95.3609 49.044 95.4849 48.964 95.5729 48.86C95.6609 48.756 95.7289 48.58 95.7769 48.332C95.8329 48.084 95.8729 47.724 95.8969 47.252L96.2689 41.636H101.117V50H99.8449L99.9049 42.728H97.4329L97.1209 47.372C97.0809 47.94 97.0129 48.416 96.9169 48.8C96.8209 49.184 96.6529 49.476 96.4129 49.676C96.2449 49.82 96.0209 49.936 95.7409 50.024C95.4689 50.12 95.1769 50.168 94.8649 50.168ZM102.296 50L104.576 41.636H106.304L108.584 50H107.288L106.64 47.444L107.312 47.888H103.592L104.24 47.444L103.604 50H102.296ZM104.252 47.372L103.82 46.796H107.072L106.64 47.372L105.344 42.224L106.052 42.776H104.84L105.536 42.224L104.252 47.372ZM109.788 50V41.636H111.012L110.964 45.884V48.176L114.06 41.636H115.812V50H114.588L114.636 46.148V42.932L111.3 50H109.788ZM112.776 41.324C112.168 41.324 111.696 41.18 111.36 40.892C111.032 40.604 110.852 40.144 110.82 39.512L111.636 39.476C111.676 39.764 111.78 39.98 111.948 40.124C112.116 40.268 112.392 40.34 112.776 40.34C113.2 40.34 113.496 40.268 113.664 40.124C113.832 39.98 113.936 39.764 113.976 39.476L114.696 39.512C114.68 39.936 114.592 40.284 114.432 40.556C114.272 40.82 114.052 41.016 113.772 41.144C113.5 41.264 113.168 41.324 112.776 41.324ZM118.167 50V41.636H119.439L119.403 45.608L118.839 45.188H123.267L122.703 45.608L122.667 41.636H123.939V50H122.667L122.703 45.872L123.267 46.292H118.839L119.403 45.872L119.439 50H118.167ZM125.58 46.604V45.536H128.436V46.604H125.58ZM130.037 50L130.325 41.636H132.065L133.805 46.88H133.889L135.653 41.636H137.393L137.681 50H136.421L136.373 42.968H136.289L134.573 48.104H133.133L131.429 42.968H131.345L131.297 50H130.037ZM138.799 50L141.079 41.636H142.807L145.088 50H143.791L143.143 47.444L143.815 47.888H140.095L140.743 47.444L140.107 50H138.799ZM140.755 47.372L140.323 46.796H143.575L143.143 47.372L141.847 42.224L142.555 42.776H141.343L142.039 42.224L140.755 47.372ZM146.292 50L146.34 46.112L146.292 41.636C146.292 41.636 146.38 41.628 146.556 41.612C146.74 41.596 146.976 41.576 147.264 41.552C147.552 41.528 147.868 41.508 148.212 41.492C148.556 41.476 148.888 41.468 149.208 41.468C149.968 41.468 150.556 41.708 150.972 42.188C151.396 42.66 151.608 43.372 151.608 44.324C151.608 44.916 151.532 45.408 151.38 45.8C151.228 46.184 151.024 46.484 150.768 46.7C150.52 46.916 150.236 47.072 149.916 47.168C149.604 47.256 149.284 47.3 148.956 47.3C148.692 47.3 148.42 47.292 148.14 47.276C147.86 47.252 147.668 47.24 147.564 47.24V50H146.292ZM149.016 46.256C149.256 46.256 149.448 46.24 149.592 46.208C149.744 46.176 149.864 46.12 149.952 46.04C150.072 45.92 150.152 45.708 150.192 45.404C150.24 45.1 150.264 44.7 150.264 44.204C150.264 43.804 150.244 43.5 150.204 43.292C150.172 43.076 150.128 42.924 150.072 42.836C150.016 42.74 149.96 42.676 149.904 42.644C149.832 42.588 149.712 42.544 149.544 42.512C149.376 42.472 149.176 42.452 148.944 42.452C148.672 42.452 148.412 42.464 148.164 42.488C147.916 42.512 147.716 42.536 147.564 42.56V46.124C147.644 46.132 147.824 46.156 148.104 46.196C148.392 46.236 148.696 46.256 149.016 46.256ZM158.037 50L154.713 45.668L157.797 41.636H159.333L156.153 45.596V45.668L159.645 50H158.037ZM153.405 50L153.441 45.752L153.405 41.636H154.689V50H153.405ZM160.636 50V41.636H165.028V42.74L161.344 42.692L161.932 42.128L161.836 45.68L161.284 45.212H164.728V46.28H161.284L161.836 45.788L161.932 49.496L161.344 48.92L165.028 48.896V50H160.636ZM168.044 50L168.068 42.704L165.728 42.74V41.636H171.644V42.74L169.28 42.704L169.304 50H168.044Z" fill="white"/>
<path opacity="0.2" d="M54.6484 59.0669C54.6484 58.5552 43.1741 58.1338 29.0368 58.1338C14.8994 58.1338 3.42517 58.5552 3.42517 59.0669C3.42517 59.5786 14.8994 60 29.0368 60C43.207 60 54.6484 59.5786 54.6484 59.0669Z" fill="#5D5D5D"/>
<path d="M29.3984 11.8098C40.5439 11.8098 49.5852 20.0873 49.5852 30.2913V48.7727H29.3984C18.2529 48.7727 9.21161 40.4952 9.21161 30.2913V11.8098H29.3984Z" fill="white"/>
<path opacity="0.3" d="M46.692 20.7797C45.0152 22.5556 43.996 24.8733 43.996 27.4017C43.996 31.1642 46.2317 34.4451 49.5523 36.221V30.2913C49.5523 26.8298 48.5331 23.579 46.692 20.7797Z" fill="white"/>
<path d="M38.7685 13.9469C35.6122 15.6024 33.5081 18.7027 33.5081 22.2846C33.5081 27.5822 38.2096 31.8866 43.996 31.8866C46.0344 31.8866 47.9413 31.3448 49.5523 30.4116V30.2913C49.5523 23.1876 45.1796 17.0171 38.7685 13.9469Z" fill="white"/>
<path opacity="0.5" d="M22.9215 15.3909C17.7269 15.3909 12.9596 17.0464 9.21161 19.8457V30.3205C9.21161 40.5245 18.2529 48.802 29.3984 48.802H39.0644C42.5823 45.2502 44.7193 40.5546 44.7193 35.3773C44.7193 24.3306 34.9547 15.3909 22.9215 15.3909Z" fill="#F8F6EC"/>
<path d="M49.5523 48.7426L29.3984 48.7727C18.2529 48.7727 9.21161 40.4951 9.21161 30.2912V11.8398L49.5523 48.7426Z" fill="white"/>
<path opacity="0.3" d="M12.335 18.4318C12.335 32.4584 24.7627 43.8062 40.0507 43.8062C41.3658 43.8062 42.648 43.7159 43.8974 43.5654L12.598 14.9402C12.4336 16.084 12.335 17.2579 12.335 18.4318Z" fill="white"/>
<path opacity="0.3" d="M49.5523 48.7727L9.37601 11.9904C14.1104 18.4619 19.568 25.0237 25.1243 30.4417C29.4642 34.6557 41.9905 44.077 49.5523 48.7727Z" fill="white"/>
<path opacity="0.3" d="M22.3955 23.8799L9.21161 11.8398V30.3213C9.21161 38.4784 14.9981 45.4014 22.9873 47.8396C19.568 44.679 17.4639 40.3446 17.4639 35.5888C17.4639 31.0738 19.3379 26.9802 22.3955 23.8799Z" fill="white"/>
<path opacity="0.3" d="M40.3466 40.3447C36.9274 44.1674 31.7327 46.6356 25.9134 46.6356C22.0338 46.6356 18.4173 45.552 15.4254 43.6858C19.042 46.8464 23.9407 48.8029 29.3655 48.8029H49.5523V48.7728L40.3466 40.3447Z" fill="white"/>
<path opacity="0.3" d="M10.3952 22.8866C10.3952 19.9067 10.9541 17.0171 12.0062 14.3683L9.21161 11.8398V30.3213C9.21161 40.5252 18.2529 48.8028 29.3984 48.8028H49.5852V48.7727L47.5797 46.9366C44.6536 47.8998 41.5302 48.4115 38.2425 48.4115C22.8558 48.3814 10.3952 36.9734 10.3952 22.8866Z" fill="#F8F6EC"/>
<path d="M49.2235 52.3546C50.6372 51.9934 52.1167 52.776 52.4784 54.0703C52.8729 55.3646 52.0181 56.7191 50.5715 57.0502C49.1578 57.4114 47.6783 56.6288 47.3166 55.3345C46.955 54.0402 47.8098 52.7158 49.2235 52.3546ZM48.6975 50.5185C46.1659 51.1506 44.6535 53.4984 45.344 55.8161C46.0015 58.1338 48.5988 59.5184 51.1304 58.8863C53.662 58.2542 55.1743 55.8763 54.4839 53.5887C53.8264 51.271 51.229 49.9165 48.6975 50.5185Z" fill="white"/>
<path opacity="0.5" d="M52.0506 56.1768C51.6889 56.5982 51.1958 56.9294 50.604 57.0799C49.1902 57.4411 47.7108 56.6584 47.3491 55.3641C47.0861 54.4009 47.4477 53.4377 48.2368 52.8658C47.8423 52.3541 47.5135 51.7822 47.1847 51.2103C45.6066 52.2337 44.8175 54.0698 45.3436 55.8758C46.0011 58.1936 48.5984 59.5782 51.13 58.9461C52.3136 58.6451 53.267 57.9829 53.8917 57.1099C53.267 56.8089 52.6424 56.5079 52.0506 56.1768Z" fill="white"/>
<path d="M10.1646 52.3546C11.5783 52.0235 13.0578 52.8061 13.4195 54.1004C13.7811 55.3947 12.9263 56.7492 11.5126 57.0803C10.0989 57.4114 8.61937 56.6288 8.25772 55.3345C7.89606 54.0402 8.75088 52.6857 10.1646 52.3546ZM9.63857 50.5185C7.107 51.1205 5.59464 53.4984 6.25219 55.8161C6.90974 58.1338 9.50706 59.5184 12.0386 58.9164C14.5702 58.3144 16.0826 55.9365 15.4579 53.6188C14.7675 51.3011 12.1701 49.9165 9.63857 50.5185Z" fill="white"/>
<path opacity="0.5" d="M12.9596 56.207C12.598 56.6284 12.1048 56.9595 11.513 57.0799C10.0993 57.411 8.61978 56.6284 8.25813 55.3341C7.99511 54.3709 8.38964 53.4077 9.14582 52.8358C8.75129 52.3241 8.42252 51.7522 8.12662 51.1803C6.5485 52.1736 5.72656 54.0097 6.2526 55.8157C6.91015 58.1334 9.50747 59.518 12.039 58.916C13.2226 58.6451 14.209 57.9528 14.8008 57.0799C14.1432 56.8391 13.5514 56.5381 12.9596 56.207Z" fill="white"/>
<path d="M10.4938 10.5455C9.86915 10.5455 9.34311 10.0639 9.34311 9.49205C9.34311 7.02384 8.58693 5.15763 7.14031 3.92353C4.80601 1.90682 1.28812 2.11752 1.25524 2.11752C0.630565 2.17772 0.071647 1.72622 0.00589198 1.15432C-0.0598631 0.582418 0.4333 0.0707164 1.05797 0.0105162C1.25524 0.0105162 5.59507 -0.290485 8.68556 2.32822C10.6582 3.98373 11.6445 6.39174 11.6445 9.46194C11.6445 10.0639 11.1514 10.5455 10.4938 10.5455Z" fill="white"/>
</svg>
