<svg width="80" height="58" viewBox="0 0 80 58" fill="none" xmlns="http://www.w3.org/2000/svg">
<g opacity="0.5" clip-path="url(#clip0_81_70)">
<path d="M71.8778 15.6052C72.5536 15.6052 73.1014 15.0567 73.1014 14.38C73.1014 13.7033 72.5536 13.1548 71.8778 13.1548C71.2021 13.1548 70.6543 13.7033 70.6543 14.38C70.6543 15.0567 71.2021 15.6052 71.8778 15.6052Z" fill="#7B002B"/>
<path d="M72.8654 13.9315C72.9543 14.1263 72.9837 14.3432 72.9497 14.5547C72.9157 14.7662 72.8199 14.9629 72.6744 15.1199C72.5289 15.277 72.3402 15.3874 72.1321 15.4372C71.924 15.4869 71.7058 15.4739 71.5052 15.3997C71.3045 15.3255 71.1302 15.1934 71.0044 15.0201C70.8786 14.8469 70.8068 14.6402 70.7982 14.4261C70.7896 14.2121 70.8444 14.0002 70.9559 13.8174C71.0673 13.6345 71.2304 13.4888 71.4244 13.3986C71.6863 13.2791 71.9846 13.2681 72.2545 13.3679C72.5244 13.4677 72.744 13.6703 72.8654 13.9315Z" fill="white"/>
<path d="M46.6997 32.8353V33.1581L41.2769 35.7155V35.2858C41.2769 35.2858 42.0115 34.5765 42.0115 32.6177V20.3898C42.0115 20.3898 41.7754 18.8024 40.9827 18.4572V18.1101L44.1776 16.7348C44.4905 16.5997 45.2306 16.0255 45.4255 15.7047H45.7122V16.7929C46.7653 15.1474 48.1669 14.1417 49.8608 14.0235C52.5253 13.8284 53.1999 16.9018 53.1155 19.0389C52.9806 22.6864 50.6946 26.7993 47.0445 27.516C46.6229 27.6004 46.1582 27.5085 45.7122 27.364V31.0453C45.7141 31.0472 45.6616 32.3813 46.6997 32.8353Z" fill="#7B002B"/>
<path d="M34.6587 38.3328V38.6631L29.2453 41.2205V40.7908C29.2453 40.7908 29.9705 40.0816 29.9705 38.1227V25.8967C29.9705 25.8967 29.7344 24.3075 28.9418 23.9622V23.617L32.146 22.2398C32.4589 22.1066 33.199 21.5305 33.3939 21.2022H33.6731V22.2998C34.7337 20.6524 36.1259 19.6486 37.8217 19.5229C40.4862 19.3353 41.1514 22.4011 41.0764 24.5458C40.9415 28.1839 38.6649 32.2986 35.0147 33.0154C34.5856 33.0998 34.1209 33.0154 33.675 32.8634V36.5541C33.6731 36.5503 33.63 37.8844 34.6587 38.3328ZM64.4651 13.4756L57.7944 16.7253C57.7944 16.7253 57.7438 19.0557 59.8349 19.0557C61.9261 19.0557 64.4894 15.7553 64.4894 15.7553L64.7255 15.8829L63.916 19.0238C63.916 19.0238 60.3315 22.5362 57.1198 22.5362C53.8988 22.5362 53.7976 17.9749 53.7976 17.9749C53.7976 17.9749 53.5877 12.8508 58.5533 9.80927C63.5207 6.82219 64.7274 11.5674 64.4651 13.4756Z" fill="#7B002B"/>
<path d="M28.925 29.7207L22.2543 32.9705C22.2543 32.9705 22.2037 35.3008 24.2949 35.3008C26.386 35.3008 28.9494 31.9985 28.9494 31.9985L29.1855 32.1336L28.376 35.2746C28.376 35.2746 24.7914 38.7795 21.5704 38.7795C18.3587 38.7795 18.2482 34.2295 18.2482 34.2295C18.2482 34.2295 18.0458 29.0959 23.0113 26.0638C27.9806 23.0842 29.1855 27.8125 28.925 29.7207Z" fill="#7B002B"/>
<path d="M18.8234 40.0122V40.3255L10.3333 44.2339V43.8717C10.3333 43.8717 11.5044 42.5715 11.5044 40.4268V23.2774C11.5044 23.2774 11.5887 19.9676 9.86858 19.309V19.0238L19.1438 14.7515C24.3623 12.3348 25.9307 14.8097 26.1424 17.2489C26.4123 20.2979 25.1475 23.8591 22.2637 25.5759C20.8565 26.4109 19.4212 27.1952 17.9634 27.805V27.2908C19.9458 25.7541 21.1094 23.1536 21.042 20.5962C21.0083 19.4723 19.9046 17.9956 18.4618 18.7124L16.5899 19.6505V36.4435C16.5899 36.4416 16.5374 40.5619 18.8234 40.0122ZM70.006 16.4721V16.7085L64.795 19.2002V18.7781C64.795 18.7781 65.3852 17.9844 65.3852 16.4721V9.06818C65.3852 9.06818 65.2672 8.0212 64.3734 7.44705L68.0572 5.75087C68.0572 5.75087 68.6981 5.39625 68.9848 4.97408L69.1796 5.17672V6.27436C69.1796 6.27436 70.4351 3.66442 72.2583 3.66442V6.86352C72.2583 6.86352 70.0247 7.25191 69.1965 9.27082V14.9954C69.1965 14.9954 69.1965 15.9842 70.006 16.4721ZM47.7622 12.8077V13.0441L42.5512 15.5358V15.1136C42.5512 15.1136 43.1415 14.32 43.1415 12.8077V5.40376C43.1415 5.40376 43.0234 4.35678 42.1371 3.78263L45.8135 2.08645C45.8135 2.08645 46.4543 1.7337 46.741 1.30966L46.9434 1.5123V2.60994C46.9434 2.60994 48.1988 0 50.0201 0V3.1991C50.0201 3.1991 47.7772 3.58749 46.9602 5.6064V11.331C46.9621 11.331 46.9621 12.3179 47.7622 12.8077ZM34.2203 19.3691L27.0962 22.7295V22.2905C27.0962 22.2905 27.9975 21.5812 27.9975 19.082V6.77158C27.9975 6.77158 27.8719 5.08291 26.7758 5.20112V4.91404L34.0948 1.55358C37.2578 0.10132 41.8954 1.06386 41.8954 5.91786V7.72474C41.8935 13.0441 38.4195 17.3858 34.2203 19.3691ZM11.1934 54.6286C11.1934 54.6286 10.6106 54.7881 10.4851 54.9813C10.3576 55.1765 10.1309 55.1427 9.84422 55.1765C9.55753 55.2121 9.55753 55.623 9.16966 55.623C8.78928 55.623 8.40141 55.7262 8.30959 56.0471C8.20841 56.3679 7.79617 56.655 7.3727 56.7132C6.96046 56.7807 6.4789 56.655 6.99419 56.3323C7.50948 56.0096 7.05228 55.7844 7.05228 55.623C7.05228 55.4635 7.11973 55.0489 7.3727 54.9494C7.63503 54.8556 8.20841 54.3077 8.20841 54.3077C8.20841 54.3077 8.40328 54.0207 8.08286 53.9869C7.76244 53.9531 7.53572 53.895 7.44203 54.1145C7.35021 54.3415 6.80119 55.3041 6.80119 55.3041C6.80119 55.3041 6.0929 55.2121 5.96735 55.6587C5.84181 56.1052 5.48579 56.4936 5.32652 56.5537C5.16725 56.6212 4.97237 56.3942 4.71941 56.5893C4.46645 56.7845 4.39899 56.2084 4.14603 56.5293C3.8837 56.8501 3.31032 56.8164 3.31032 56.8164C3.31032 56.8164 3.56328 55.9139 3.24286 56.2328C2.92245 56.5537 2.31534 57.0359 1.89374 57.0096C1.47963 56.9758 1.2529 57.0359 1.09363 57.2291C0.934356 57.4224 0.39283 57.2629 0.39283 57.2629L0.00308228 56.8745C0.00308228 56.8745 0.482772 56.5537 0.643918 56.3004C0.805064 56.0471 1.12548 55.533 1.28475 55.2459C1.44403 54.9513 1.4103 54.6305 1.73072 54.5367C2.05113 54.4353 2.11859 54.1483 2.11859 53.8612C2.11859 53.576 1.6389 53.6079 1.47775 53.7936C1.47775 53.7936 1.47775 53.4127 1.76444 53.1519C2.05113 52.8986 2.82688 52.165 3.07984 51.9023C3.33281 51.649 3.43399 51.649 3.43399 51.938C3.43399 52.2232 3.49208 52.7729 3.78814 52.7729C4.07483 52.7729 4.39524 52.5102 4.4627 52.2232C4.52266 51.938 5.10354 51.2963 4.84308 51.1011C4.59012 50.906 4.2697 50.9736 4.14228 51.2269C4.00737 51.4877 3.62886 51.3601 3.94741 51.0073C4.26783 50.6527 4.55452 50.1367 4.68193 49.8834C4.80748 49.6207 5.06981 49.3693 5.60946 49.2417C6.15848 49.1066 8.40141 48.5325 9.04224 48.1779C9.68308 47.8251 11.2252 46.8607 12.4731 46.4817C13.7211 46.0933 13.4344 45.9319 14.3282 45.84C15.2295 45.7387 15.9977 45.1983 16.4774 44.8756C16.9571 44.5547 17.3712 44.202 17.3712 44.5547V44.6148C17.3712 44.6148 17.5998 44.2339 18.2388 43.8117C18.8796 43.397 19.8072 43.2038 20.3543 43.2038C20.9015 43.2038 21.0289 43.11 21.2219 42.9167C21.4074 42.7216 21.7297 42.564 21.8627 42.851C21.9883 43.1362 22.4698 42.9167 22.689 42.7572C22.9177 42.5959 23.0769 42.3688 22.8839 42.1737C22.689 41.9879 22.4698 41.5658 22.689 41.472C22.9177 41.3706 23.1781 41.3706 23.1781 41.6333C23.1781 41.8866 23.3655 42.3688 23.5585 42.3332C23.7534 42.3088 23.7178 41.4063 24.1056 41.6333C24.486 41.8528 25.0332 41.532 25.6065 41.3462C26.1893 41.1511 26.669 40.5113 26.7027 40.9935C26.7271 41.4738 27.2761 40.8584 27.5384 40.697C27.7914 40.5375 28.1118 39.6763 28.6252 39.9277C29.1386 40.1904 29.1386 40.2824 28.8201 40.5357C28.4997 40.7984 28.4659 41.2111 28.4997 41.6333C28.5259 42.048 28.6589 42.0123 29.1405 41.8284C29.6221 41.6333 32.6651 40.3518 32.9518 40.1904C33.2385 40.0309 35.1947 39.0665 35.1947 39.0665C35.1947 39.0665 35.4814 38.9652 35.354 38.6781C35.2284 38.3911 35.2622 38.0045 34.9661 37.9689C34.6794 37.9426 34.1997 37.361 34.4864 36.845C34.7806 36.3309 34.9418 35.9838 34.9418 36.6255C34.9418 37.269 35.161 37.361 35.4214 37.0739C35.6744 36.7868 35.8356 36.7193 35.9611 36.9801C36.0866 37.2334 36.2478 37.0382 36.4427 36.8788C36.6375 36.7174 36.9223 36.8187 37.0835 37.0045C37.2428 37.1996 37.3777 36.9463 37.4376 36.6836C37.5051 36.4284 37.6981 35.3984 38.3652 35.5259C39.0397 35.661 39.7724 35.661 39.7724 35.4002C39.7724 35.1469 39.6112 34.9199 39.8642 34.9199C40.1172 34.9199 40.3439 35.1469 40.2783 35.6873L40.758 35.661V36.5898L46.9471 33.796C46.9471 33.796 47.5542 33.6703 47.395 32.9929C47.2357 32.3156 47.335 32.4788 47.0745 32.4526C46.8216 32.4188 46.5012 31.9047 46.7279 31.6176C46.9471 31.323 47.1083 30.747 47.2338 31.1617C47.3687 31.5838 47.588 32.1336 47.588 32.1336C47.588 32.1336 47.8503 32.5482 48.0358 31.839C48.2307 31.1373 48.3881 30.7845 48.7441 30.5218C49.0964 30.2685 49.6379 30.0753 49.7728 29.8801C49.8983 29.6925 49.992 29.3979 50.3125 29.533C50.6329 29.6587 50.4717 29.8182 50.1869 30.0134C49.9002 30.201 49.4187 30.6569 49.7053 30.8746C49.992 31.1035 50.1194 31.1373 50.2525 30.9778C50.3799 30.8164 50.5392 30.7489 50.5392 31.1373C50.5392 31.5182 50.5055 31.9985 50.8933 31.9985C51.2718 31.9985 51.4667 31.7133 51.5679 31.3249C51.6597 30.944 51.6278 30.5556 52.0157 30.9102C52.3942 31.263 52.3361 30.8164 52.3361 30.8164C52.3361 30.8164 52.3942 30.428 52.8496 30.5218C53.2955 30.6232 54.0975 30.4956 54.3842 30.2685C54.6709 30.0396 55.767 29.2722 55.767 29.2722C55.767 29.2722 56.2149 28.9176 56.3742 29.4317C56.3742 29.4317 56.569 29.1109 56.7545 29.1109C56.9494 29.1109 56.7545 28.3097 57.0506 28.8576C57.3373 29.3979 58.4241 27.9869 59.9681 27.7937C59.9681 27.7937 60.3822 27.5742 60.5415 27.8612C60.7007 28.1483 60.8956 27.3809 61.3753 27.5404C61.855 27.7018 61.8906 27.1876 62.3703 27.1614C62.8518 27.1257 63.9724 27.0676 63.9724 26.5197C63.9724 25.9793 63.9049 25.7842 63.6763 25.7504C63.4571 25.7166 63.517 25.4652 63.8712 25.3376C64.2253 25.2025 64.2591 26.0037 64.3846 26.4596C64.512 26.9081 64.6713 26.5872 64.8999 26.3583C65.1266 26.1388 66.3071 25.2701 66.755 25.3958C67.2103 25.5215 67.5551 25.4295 67.6918 25.8761C67.8174 26.3245 68.0123 25.8761 68.0123 25.6585C68.0123 25.4295 67.8773 24.3732 68.4582 24.1462C69.0316 23.9172 69.1927 23.951 69.4532 24.1799C69.7062 24.3995 69.8336 24.1462 69.9929 24.7203C70.1521 25.3038 70.5063 25.0412 70.7948 24.8817C71.089 24.7203 72.0165 23.8591 72.5899 23.8591C73.1727 23.8591 73.0115 23.5964 73.0115 23.5964C73.0115 23.5964 73.0115 23.1498 73.4912 23.632C73.9728 24.1124 73.7779 23.8947 74.2257 23.6658C74.6736 23.4388 75.127 22.8628 75.2207 23.4388C75.3125 24.0223 75.6348 23.7915 75.8616 23.4125C76.0902 23.0241 76.0902 22.4406 76.7554 22.2211C77.4299 21.994 78.2656 21.707 78.3912 21.4781C78.5261 21.2585 78.6535 21.1309 78.9046 21.1309C79.1669 21.1309 79.4517 21.0634 79.4517 20.8101C79.4517 20.5474 79.5117 20.1928 79.7384 20.675C79.9652 21.1572 80.3118 21.8983 79.3506 22.2548C78.3893 22.6076 77.621 22.6339 77.3006 22.6339C76.9802 22.6339 76.6598 22.54 76.8547 22.9885L77.3006 24.0186C77.3006 24.0186 76.4331 23.951 76.3057 24.3038C76.1782 24.6584 75.6985 25.4614 75.6648 26.0018C75.6311 26.5497 75.2863 26.0675 75.2863 25.8742C75.2863 25.681 74.8647 24.8535 74.5443 24.5908C74.2239 24.3375 74.1321 24.3375 74.0309 24.6246C73.9391 24.9117 73.4575 24.5571 73.39 24.9117C73.3319 25.2663 73.0696 25.3939 72.7492 25.3939C72.4288 25.3939 71.8217 25.8405 72.3688 26.0675C72.9085 26.2964 73.4219 26.4822 73.4219 26.4822C73.4219 26.4822 74.0627 26.7111 73.227 26.8368C72.3913 26.9625 71.4057 27.0319 71.0178 26.9625C70.6299 26.9043 69.9891 26.8368 69.9891 27.3772C69.9891 27.925 69.8636 28.1127 69.5075 28.3059C69.1628 28.5011 68.9342 28.7863 68.9342 28.7863C68.9342 28.7863 68.1659 28.3397 67.8118 28.2459C67.4576 28.1446 67.2983 28.3397 67.2646 28.6605C67.2309 28.9814 67.2983 29.2103 66.9779 29.3022C66.6575 29.3961 65.7881 29.5574 65.3758 29.7844C64.9617 30.0115 64.3809 30.1391 64.2197 30.5519C64.2197 30.5519 63.6463 30.3323 63.3259 30.7132C63.0055 31.1016 61.7238 31.8109 60.89 31.8109C60.0562 31.8109 58.0999 32.6139 57.4572 33.0248L57.2623 32.7396C57.2623 32.7396 55.3061 33.6346 55.3061 33.8954C55.3061 33.8954 54.5716 33.7603 53.8989 34.1487C53.2243 34.5371 53.1644 34.6309 53.4173 35.5015C53.4173 35.5015 52.205 35.3402 51.9089 35.5935C51.6222 35.8468 50.7284 36.329 50.661 36.7512C50.601 37.164 50.2131 36.8168 50.1813 36.5898C50.1457 36.3628 50.215 36.1676 50.6029 36.0419C50.9833 35.9143 50.7884 35.5259 50.5017 35.5259C50.215 35.5259 49.0926 35.8468 48.8659 36.0419C48.6466 36.2371 48.1314 36.4303 48.032 36.1695C47.9384 35.9143 47.5243 36.0419 47.3669 36.3647C47.2057 36.6855 46.6586 37.0063 47.2319 37.1996C47.8147 37.3947 48.5811 37.5523 48.7422 37.4266C48.9015 37.3009 49.383 36.4303 49.383 36.7849C49.383 37.1396 49.2238 37.6462 48.8696 37.8732C48.5155 38.1021 48.3881 37.6199 47.528 37.7137C47.528 37.7137 47.2338 38.0665 47.2338 38.3554C47.2338 38.3554 46.593 38.7438 46.4318 38.9296C46.2726 39.1247 45.791 38.7119 45.538 38.6444C45.2757 38.5843 44.8297 38.4492 44.5768 38.7119C44.3144 38.9652 44.6367 39.2523 44.3144 39.3855C43.994 39.5112 43.6137 40.121 42.9072 40.1548C42.2064 40.1886 40.6643 40.6351 40.4376 40.7608C40.2183 40.8884 39.7724 41.0479 39.7724 40.5075C39.7724 39.9596 39.3508 40.1191 39.2908 40.4738C39.2234 40.8265 39.2571 41.5038 38.7174 41.7571C38.1778 42.0104 37.6288 41.8829 37.3758 42.0442C37.1153 42.2037 35.7063 43.2338 35.3858 43.3952C35.0654 43.5565 31.5408 45.354 25.8314 47.6581L25.511 47.3373C25.5691 47.4255 18.4618 51.7991 11.1934 54.6286Z" fill="#7B002B"/>
<path d="M33.6731 25.195V30.8952C33.9841 30.944 34.3045 30.9797 34.6081 30.8952C36.1258 30.4975 36.8004 28.9026 36.8004 27.3471V24.8648C36.8004 23.876 36.1596 23.2268 35.4606 23.2343C34.5144 23.253 34.0347 24.1649 33.6731 25.195ZM25.0892 29.1296L22.2298 30.5387C22.3066 29.6606 22.8875 28.5799 23.7214 28.1652C24.2198 27.9232 25.0536 27.8462 25.0892 29.1296ZM32.382 17.2489V5.66645C36.7404 2.06019 37.4487 7.41516 37.3907 9.526C37.3157 12.5975 36.2102 16.2526 32.382 17.2489ZM60.6294 12.8846L57.7794 14.2937C57.8468 13.4156 58.4296 12.3273 59.2709 11.922C59.7693 11.6687 60.6032 11.5937 60.6294 12.8846ZM45.714 19.6974V25.3977C46.027 25.4558 46.338 25.4821 46.6416 25.4052C48.1593 24.9999 48.8414 23.405 48.8414 21.8496V19.3691C48.8414 18.3728 48.2005 17.7217 47.5016 17.7311C46.5572 17.748 46.0663 18.6674 45.714 19.6974Z" fill="white"/>
<path d="M71.7261 15.1548L71.8854 15.0798L71.6418 14.5563L72.0465 14.3705C72.2995 14.2523 72.3332 14.5131 72.425 14.6482L72.5187 14.7908L72.7136 14.6989C72.5937 14.6238 72.603 14.5901 72.5187 14.4381C72.4007 14.2355 72.3913 14.2092 72.2226 14.1923C72.307 14.0403 72.3238 13.9653 72.247 13.8133C72.1046 13.5356 71.9022 13.5844 71.7167 13.6688L71.1696 13.9221L71.7261 15.1548Z" fill="#7B002B"/>
<path d="M71.786 13.8133C71.8778 13.772 72.039 13.7195 72.1139 13.9465C72.1739 14.1079 72.0802 14.1829 71.9697 14.2336L71.5818 14.4137L71.3869 13.9897L71.786 13.8133Z" fill="white"/>
</g>
<defs>
<clipPath id="clip0_81_70">
<rect width="80" height="57.3248" fill="white"/>
</clipPath>
</defs>
</svg>
