<svg width="80" height="49" viewBox="0 0 80 49" fill="none" xmlns="http://www.w3.org/2000/svg">
<g opacity="0.5" clip-path="url(#clip0_81_80)">
<path d="M38.9559 25.2813C39.0267 25.2947 39.0974 25.3072 39.1679 25.3197L38.9559 25.2813ZM39.5341 25.3773C39.6164 25.3896 39.6987 25.4004 39.7813 25.4113L39.5341 25.3773ZM40.1454 25.4504C40.2258 25.4577 40.3057 25.4646 40.3862 25.4707L40.1454 25.4504ZM40.4723 25.4766C40.5402 25.4816 40.6081 25.4856 40.676 25.4891L40.4723 25.4766ZM40.7748 25.4943C40.8553 25.4978 40.9357 25.5009 41.0161 25.5035L40.7748 25.4943ZM41.0961 25.5044C41.2758 25.5092 41.4555 25.5094 41.6352 25.5049L41.0961 25.5044ZM41.7211 25.5035C41.8048 25.501 41.8886 25.4978 41.9723 25.4938L41.7211 25.5035ZM42.0513 25.4901C42.1239 25.486 42.1954 25.4816 42.2675 25.4766L42.0513 25.4901ZM42.3425 25.4714C42.4211 25.4655 42.4998 25.4589 42.5779 25.4516L42.3425 25.4714ZM42.9808 25.4068C43.0413 25.3997 43.1014 25.3919 43.1612 25.3825L42.9808 25.4068ZM54.0179 5.16091C53.9528 5.12591 53.886 5.0941 53.8177 5.0656L54.0179 5.16091ZM53.3621 4.9257C53.2785 4.90861 53.194 4.89569 53.109 4.88701L53.3621 4.9257ZM69.0713 17.161L69.0256 17.1674L69.0713 17.161ZM10.4284 13.606C10.1372 13.3395 9.91599 13.006 9.784 12.6345C9.6766 12.3243 9.53751 11.9367 9.53751 11.6076C9.54437 10.1236 10.4128 9.02144 11.3477 8.51115C11.7725 8.27948 11.9303 8.12048 11.9951 8.03885C11.964 8.02514 11.9308 8.01669 11.8969 8.01384C10.6245 8.01384 9.97207 7.52078 9.65177 7.10344C9.34826 6.71253 9.19331 6.20861 9.19331 5.65751C9.19331 5.38975 9.23116 5.10948 9.30568 4.82284C9.6643 4.2321 10.0049 4.39441 10.2136 4.69662C10.3465 4.88583 11.2575 5.52988 12.38 5.63203C13.1968 5.70941 13.6371 6.10787 13.8661 6.42613C14.1301 6.79463 14.2313 7.23862 14.2313 7.61632C14.2313 7.77085 14.2138 7.91594 14.1804 8.04498C14.0574 8.54277 13.5316 8.99148 12.7992 9.5631L12.3838 9.9066C11.7756 10.4374 11.4409 11.0281 11.4409 11.5288C11.4409 11.6538 11.4629 11.7758 11.5052 11.8883C11.5227 11.9345 11.5438 11.9791 11.5686 12.0214C11.8404 12.4802 12.6085 12.768 13.7227 12.3792C14.2377 12.2011 15.2291 11.5788 15.8345 10.9803C16.5467 10.2716 17.4975 10.1015 18.413 10.0293C19.2068 9.96959 19.6956 9.77543 20.0398 9.38947C21.057 8.24646 22.0358 8.0858 22.952 8.01785C23.3026 7.99096 23.3215 7.96595 23.3672 7.90438C23.8723 7.23367 24.391 6.87861 24.8566 6.67195C25.2114 6.51459 25.5355 6.44288 25.8009 6.38484L26.1231 6.30581L26.2035 6.2775C26.7136 6.11377 27.1084 5.97812 28.1459 5.27886L28.1902 5.25103L28.1904 5.25055L28.2339 5.22342L28.2344 5.22319L28.2782 5.19747L28.2789 5.19724L28.3226 5.17223L28.3233 5.17199L28.3673 5.14887L28.3688 5.1484L28.4123 5.12575L28.4137 5.12528L28.4575 5.10405L28.4594 5.10358L28.5034 5.08329L28.505 5.08235L28.5493 5.06394L28.5511 5.06324L28.5951 5.04507L28.5975 5.0446L28.6417 5.02809L28.6439 5.02691L28.6876 5.01134L28.7342 4.99576L28.7373 4.99506L28.7808 4.98114L28.7837 4.98043L28.8279 4.96769L28.831 4.96698L28.8748 4.95495L28.8781 4.95401L28.9221 4.94363L28.9261 4.94268L28.9694 4.93278L28.9729 4.93183L29.0172 4.92287L29.021 4.92192L29.0647 4.9139L29.0687 4.91319L29.1125 4.90588L29.1165 4.90541L29.1598 4.89904L29.1643 4.8981L29.2078 4.89314L29.2123 4.8922L29.2551 4.88748L29.2599 4.88724L29.3032 4.88323L29.3081 4.88276L29.3512 4.87969L29.3562 4.87922L29.3985 4.87663L29.4035 4.87639L29.4463 4.8745L29.4941 4.87309H29.499L29.5416 4.87262H29.5946L29.6367 4.87309L29.6417 4.87332H29.6466C29.6769 4.87403 29.7072 4.87592 29.7375 4.87757L29.7791 4.88017L29.785 4.88064L29.826 4.8837L29.8321 4.88418L29.873 4.88819L29.8794 4.88889L29.9201 4.8929L29.9267 4.89338L29.9672 4.89833L29.9736 4.89927L30.0138 4.90423L30.0206 4.90541L30.0604 4.91131L30.067 4.91249L30.107 4.91862L30.1141 4.92004L30.1531 4.92688L30.1605 4.92806L30.1993 4.93513L30.2063 4.93679C30.2683 4.94835 30.3294 4.96203 30.3892 4.97666L30.4268 4.98609L30.4344 4.98821C30.4947 5.00379 30.5543 5.0203 30.613 5.03776L30.6478 5.04861L30.6563 5.0512C30.7727 5.08777 30.8855 5.12906 30.9948 5.1727L31.0256 5.18544L31.0658 5.20196C33.2847 2.19567 36.7928 0.195339 40.78 0.0143909V0.0134472C40.9763 0.00464571 41.1728 0.000162209 41.3693 0C41.4992 8.52503e-05 41.6291 0.00205143 41.7589 0.00589791C41.8235 0.00802116 41.8881 0.0106162 41.9524 0.0132113H41.9531C42.017 0.0162782 42.0816 0.0193451 42.1457 0.0233557C46.004 0.254554 49.4019 2.19237 51.5903 5.08966C51.9028 4.98137 52.2432 4.90281 52.5907 4.87922L52.5999 4.87875L52.6328 4.87663L52.6671 4.87498L52.6754 4.8745L52.6844 4.87427L52.718 4.87332L52.727 4.87285L52.7606 4.87262L52.7696 4.87238L52.8038 4.87214H52.8121L52.8464 4.87238H52.8549L52.8973 4.87309L52.9318 4.8745L52.9394 4.87474L52.9739 4.87639L52.982 4.87686L53.0168 4.87922L53.0234 4.87969L53.0586 4.88252L53.0655 4.883L53.101 4.88654L53.1074 4.88724C53.1923 4.89591 53.2768 4.90882 53.3605 4.92593L53.3976 4.93348L53.4026 4.93466L53.4392 4.94339L53.4445 4.94433L53.4813 4.95377L53.4863 4.95495L53.5237 4.96486L53.5277 4.96604L53.566 4.97666L53.5696 4.97784L53.607 4.98939L53.6112 4.99057L53.6493 5.00308L53.6526 5.00402L53.6938 5.01841L53.7323 5.0321L53.7347 5.03328L53.773 5.04814L53.7754 5.04908L53.8144 5.06465L53.8168 5.06583C53.8842 5.09414 53.9509 5.12552 54.0169 5.16114L54.0181 5.16185L54.0571 5.18261L54.0576 5.18308L54.0966 5.20549L54.0974 5.20573L54.1364 5.22932L54.1369 5.22956L54.1754 5.25386V5.25409L54.2144 5.2791C54.9293 5.76367 55.3424 5.97718 55.6948 6.1166C55.8533 6.17959 56.0005 6.22701 56.1566 6.27773L56.2387 6.30604L56.5642 6.38508C56.7407 6.42377 56.9422 6.46835 57.1605 6.5396C57.7068 6.71701 58.3594 7.06145 58.9927 7.90461C59.0386 7.96619 59.0589 7.99119 59.4112 8.01809C60.3264 8.08627 61.3036 8.24669 62.3251 9.38971C62.6667 9.77567 63.1531 9.96959 63.9467 10.0295C64.8676 10.1017 65.8153 10.2716 66.5261 10.9805C67.1322 11.579 68.1224 12.2014 68.6388 12.3795C69.7526 12.7683 70.5245 12.4804 70.7899 12.0216C70.8481 11.9249 70.8871 11.8185 70.907 11.7059C70.9174 11.6475 70.9227 11.5883 70.9228 11.529C70.9228 11.0284 70.5876 10.4376 69.9811 9.90684L69.9056 9.84432L69.5617 9.56334C68.8321 8.99172 68.306 8.543 68.1792 8.04522C68.1459 7.91617 68.1314 7.77108 68.1314 7.61656C68.1314 7.23862 68.235 6.79486 68.4938 6.42636C68.7245 6.10811 69.1694 5.70965 69.9811 5.63227C71.1095 5.53012 72.0155 4.88606 72.148 4.69686C72.3602 4.39465 72.6975 4.23234 73.0547 4.82307C73.1304 5.10971 73.1682 5.38998 73.1682 5.65775C73.1682 6.21191 73.0133 6.71276 72.71 7.10368C72.3876 7.52101 71.7373 8.01408 70.4627 8.01408C70.4357 8.01408 70.3981 8.02658 70.3667 8.03909C70.4298 8.12095 70.5876 8.27996 71.0134 8.51139C71.9483 9.02191 72.8177 10.1241 72.8255 11.6078C72.8255 11.9369 72.688 12.3243 72.5771 12.6347C72.4611 12.9604 72.2773 13.2578 72.0377 13.5074C72.0053 13.5409 71.9715 13.5739 71.9358 13.6062C71.4092 14.0941 70.532 14.477 69.0706 14.39C68.9167 14.3806 68.7631 14.3667 68.61 14.3484C68.5721 15.0838 68.3699 15.9579 68.0853 16.3988C67.9987 16.5373 67.9817 16.6302 67.9817 16.6757C67.9817 16.6949 67.9836 16.7059 67.9836 16.714C67.9926 16.717 68.632 17.0933 68.632 17.0933L68.7351 17.1455C68.7351 17.1455 68.7952 17.1738 68.803 17.1801C68.8122 17.1768 69.024 17.1674 69.024 17.1674L69.0658 17.1615L69.0701 17.161C69.4699 17.123 70.0804 16.9279 70.3399 17.6508C70.4078 17.8426 70.4492 18.0096 70.4883 18.1575C70.5675 18.46 70.6354 18.6846 70.9008 18.8886C70.9008 18.8886 71.0321 18.7763 71.1811 18.6442C71.2963 18.5428 71.4091 18.4389 71.5197 18.3326C71.7047 18.1436 72.0469 18.2396 72.2937 18.3326C72.5432 18.427 72.8522 18.6414 73.0705 18.7655C73.2903 18.8884 73.4114 19.0443 73.4746 19.2305C73.5406 19.4162 73.6932 19.5391 73.9259 19.662C74.1507 19.7894 74.4729 20.1975 74.4729 20.7484C74.4729 20.8328 74.4823 20.905 74.5062 20.9817C74.5225 21.0324 74.5448 21.0853 74.5753 21.1454C74.8894 21.777 74.6373 22.095 74.4553 22.229C74.2107 22.4116 73.7793 22.4871 73.3738 22.421L73.3771 22.5248L72.785 22.446C72.5555 22.4175 72.253 22.476 72.0723 22.5135L72.0297 22.5248C71.6081 22.6083 71.0569 22.4661 70.7473 21.9645C70.7359 21.9459 70.7246 21.9272 70.7139 21.9074C70.5559 21.6307 70.3099 21.3738 70.1895 21.3028C70.0156 21.3504 69.741 21.4151 69.4141 21.3818C69.1108 21.3514 68.7609 21.2353 68.4051 20.9414C68.3462 20.8925 68.2868 20.8385 68.2279 20.78C67.7052 20.257 67.0153 20.1499 66.5817 20.2161L66.3232 20.2619C65.7895 20.3582 65.1229 20.4808 64.5071 20.1062C64.3538 20.013 64.1329 19.917 63.9162 19.8257C63.3572 19.5829 62.7793 19.3326 62.7005 18.8049C62.6873 18.7108 62.5851 18.5388 62.5011 18.4019C62.4273 18.2809 62.3469 18.1486 62.2846 18.0068C62.2248 17.8714 62.1817 17.7272 62.1777 17.5767C61.9947 17.6237 61.8056 17.6429 61.6168 17.6338C61.5502 17.6305 61.4837 17.6239 61.4177 17.6142L61.1749 17.5767C60.7659 17.5071 59.9094 17.3667 59.6366 17.4661C59.0935 17.6614 57.3843 17.7558 56.9157 17.6489C56.9157 17.6489 56.7433 17.6112 56.5807 17.5767C56.4246 17.7374 56.2505 17.8881 56.0674 18.0224C56.4104 18.041 56.712 17.9985 56.9193 18.0518L57.3498 18.1651C57.4872 18.1245 57.8234 18.1292 58.0143 18.1465L58.5186 18.1842L59.0939 18.2394C59.3712 18.2948 59.6655 18.4142 59.6151 18.9559C59.5957 19.1229 59.502 19.3591 59.361 19.4978C59.2834 19.5827 58.9828 20.0175 58.9168 20.1543L58.8952 20.197C58.7781 20.4459 58.6045 20.6745 58.099 20.6745C58.0348 20.6737 57.9706 20.6762 57.9067 20.6821C57.8913 20.7229 57.8499 20.7986 57.8499 20.7986C57.7361 21.0567 57.5717 21.416 57.2575 21.6239L57.1736 21.684C56.9214 21.8635 56.5013 22.1594 55.8581 21.9265L55.6366 21.8475C55.076 21.646 54.2282 21.3438 53.8002 21.1105L53.7401 21.0775C53.3415 20.86 53.2533 20.8163 53.1085 20.8366L53.0281 20.8491C52.7225 20.8918 52.1462 20.969 51.7479 20.3103L51.7114 20.2532C49.8225 22.8388 46.9833 24.6896 43.7065 25.2938L43.6921 25.2968C43.5804 25.3171 43.4678 25.336 43.3552 25.3537L43.3134 25.3598L43.1594 25.3825C43.0995 25.3914 43.0394 25.3995 42.9789 25.407L42.8691 25.4207L42.6959 25.4393L42.576 25.4518C42.4979 25.4591 42.4192 25.4658 42.3406 25.4717L42.2661 25.4766C42.194 25.4816 42.1225 25.4863 42.0499 25.4901L41.9709 25.4943C41.8871 25.4983 41.8039 25.5014 41.7197 25.504L41.6343 25.5054C41.4546 25.5098 41.2748 25.5097 41.0951 25.5049L41.0147 25.504C40.9343 25.5014 40.8538 25.4983 40.7734 25.4948L40.675 25.4893C40.6071 25.4856 40.5392 25.482 40.4713 25.4768L40.385 25.4712C40.3047 25.465 40.2244 25.4582 40.1442 25.4509L40.0254 25.4386L39.8681 25.4216L39.7803 25.4115C39.6978 25.4014 39.6154 25.39 39.5331 25.3773L39.4336 25.3627L39.2576 25.3353L39.167 25.3202C39.0962 25.3077 39.0255 25.2954 38.955 25.2817L38.8024 25.2513L38.7244 25.2355C38.62 25.2129 38.515 25.1904 38.4114 25.1654L38.3839 25.1591L38.221 25.1194L38.1372 25.098C38.04 25.073 37.9432 25.0461 37.8467 25.0192L37.8122 25.009C34.9389 24.1824 32.4837 22.3778 30.8285 19.9809L30.6106 20.3117C30.216 20.9704 29.641 20.893 29.3313 20.8505L29.2509 20.838C29.1066 20.8177 29.0153 20.8614 28.6205 21.0789L28.5571 21.1119C28.1305 21.3452 27.286 21.6474 26.7223 21.8489L26.5004 21.928C25.8577 22.1608 25.4361 21.8645 25.1887 21.6854L25.1019 21.6253C24.7875 21.4177 24.6247 21.0584 24.5093 20.8C24.5093 20.8 24.4715 20.7243 24.453 20.6835C24.3889 20.6776 24.3246 20.6751 24.2602 20.6759C23.7594 20.6759 23.5808 20.4473 23.4656 20.1984L23.4453 20.1557C23.3774 20.0189 23.0805 19.5841 22.9984 19.4992C22.8595 19.3607 22.7609 19.1243 22.7453 18.9573C22.6932 18.4156 22.9915 18.2963 23.2662 18.2408L23.8417 18.1856L24.347 18.1479C24.5349 18.1306 24.8712 18.1259 25.0084 18.1665L25.4395 18.0533C25.6446 17.9999 25.9492 18.0424 26.2892 18.0238C26.1085 17.8872 25.9375 17.7383 25.7775 17.5781C25.6131 17.6126 25.4423 17.6503 25.4423 17.6503C24.9723 17.7572 23.2662 17.6628 22.7264 17.4675C22.452 17.3682 21.5961 17.5083 21.1852 17.5781L20.9387 17.6156C20.6872 17.6542 20.4305 17.6414 20.1841 17.5781C20.1711 17.8865 20.0036 18.1665 19.86 18.4034C19.7765 18.5402 19.6707 18.7122 19.658 18.8063C19.5842 19.3341 18.9991 19.5844 18.4418 19.8271C18.2254 19.9184 18.0077 20.0144 17.8533 20.1076C17.242 20.4823 16.5723 20.3596 16.037 20.2633L15.7777 20.2176C15.3464 20.1513 14.6562 20.2584 14.1322 20.7814C13.331 21.5786 12.5338 21.4033 12.1706 21.3042C12.0505 21.3752 11.8028 21.6321 11.646 21.9088C11.3432 22.4571 10.7648 22.6128 10.329 22.5262L10.2853 22.5149C10.1064 22.4774 9.80766 22.4189 9.57891 22.4474L8.98325 22.5262L8.98964 22.4224C8.58205 22.4885 8.14915 22.4128 7.9036 22.2304C7.7231 22.0964 7.47022 21.7784 7.78958 21.1468C7.86362 20.9954 7.88893 20.8902 7.88893 20.7498C7.88893 20.1987 8.20852 19.7908 8.43278 19.6634C8.66792 19.5405 8.82263 19.4176 8.88555 19.2319C8.94729 19.0458 9.06841 18.8898 9.28841 18.7669C9.50605 18.6428 9.8157 18.4284 10.0639 18.334C10.3115 18.2411 10.6538 18.145 10.8405 18.334C11.0285 18.5166 11.4593 18.8898 11.4593 18.8898C11.8546 18.5855 11.8168 18.2347 12.0216 17.6517C12.2778 16.9289 12.8907 17.124 13.2886 17.162L13.3343 17.1683C13.3343 17.1683 13.5488 17.1778 13.5552 17.1811C13.5663 17.1747 13.6264 17.1464 13.6264 17.1464L13.726 17.0943C13.726 17.0943 14.3685 16.718 14.3749 16.7149C14.3777 16.7071 14.3777 16.6958 14.3777 16.6767C14.3777 16.6312 14.3621 16.5382 14.2753 16.3997C13.9895 15.9586 13.7875 15.0847 13.7509 14.3494C13.6477 14.3616 13.5481 14.3718 13.4502 14.3796C11.8941 14.5041 10.9694 14.1116 10.4284 13.606Z" fill="#F8EE3F"/>
<path d="M14.259 13.8123C14.259 13.8123 14.1294 15.0638 14.6947 16.1667C14.6947 16.1667 15.1137 16.7589 14.6787 17.1392L13.8126 17.6412C13.8126 17.6412 13.6962 17.7275 13.3099 17.6983C13.3099 17.6983 12.776 17.5664 12.5977 17.8016C12.5977 17.8016 12.4427 18.2539 12.2487 18.6266C12.2487 18.6266 11.8544 19.5302 11.2017 19.8196C11.2017 19.8196 10.6815 19.9386 10.5237 20.3884C10.5237 20.3884 10.356 20.7041 10.0201 20.718C10.0201 20.718 9.7696 20.7973 9.60377 21.3538C9.60377 21.3538 9.5134 21.7138 9.51813 21.9898C9.51813 21.9898 9.94536 21.9339 10.2238 22.0344C10.2238 22.0344 10.9084 22.2637 11.2145 21.7013C11.2145 21.7013 11.8059 20.6914 12.2445 20.8433C12.2445 20.8433 13.1254 21.1372 13.7476 20.496C13.7476 20.496 14.6023 19.5649 15.8094 19.7564C15.8094 19.7564 17.1691 20.031 17.5933 19.7182C17.5933 19.7182 18.4508 19.2711 18.7725 19.1603C18.7725 19.1603 19.1662 19.0449 19.2069 18.6151C19.2069 18.6151 19.4463 18.0104 19.6204 17.8089L18.9717 17.8016C18.9717 17.8016 18.3844 18.7868 17.3863 19.0838C17.3863 19.0838 16.8406 19.3013 15.7451 19.1246C15.7451 19.1246 14.1722 18.7693 12.7907 20.2573C12.7907 20.2573 12.6019 20.5293 12.3325 20.4205C12.3325 20.4205 13.0958 19.1223 14.7719 18.8146C14.7719 18.8146 15.3204 18.6983 15.7779 18.7724C15.7779 18.7724 18.0354 18.8385 19.0822 16.622C19.0822 16.622 18.9689 14.7323 19.4687 14.2848C19.4687 14.2848 19.6618 14.2258 19.6232 14.5913C19.6232 14.5913 19.2797 16.5708 19.9248 16.9542C19.9248 16.9542 20.2993 17.2477 20.9922 17.1392C20.9922 17.1392 22.0425 16.8889 22.8962 17.0347C22.8962 17.0347 24.2091 17.3454 25.3373 17.2017C25.3373 17.2017 25.0444 16.7544 25.1019 16.2196C25.1019 16.2196 25.2635 15.8367 25.4487 16.083C25.4487 16.083 25.8828 17.5131 27.0691 17.9422C27.0691 17.9422 28.1287 18.327 28.1114 19.6672C28.1114 19.6672 27.9491 19.851 26.5442 20.3488C26.5442 20.3488 26.0193 20.5142 25.8501 20.123C25.8501 20.123 25.1726 18.6769 24.5829 18.7215L23.4756 18.8111C23.4756 18.8111 23.0978 18.9076 23.376 19.2096C23.376 19.2096 23.7552 19.7123 23.9101 20.0124C23.9101 20.0124 23.9553 20.2688 24.3116 20.2143C24.3116 20.2143 24.8057 19.9702 25.0844 20.8869C25.0844 20.8869 25.3394 21.3453 25.7711 21.4918C25.7711 21.4918 26.1749 21.6263 26.5539 21.4142C26.5539 21.4142 28.3827 20.7447 28.7011 20.5073C28.7011 20.5073 29.0967 20.2865 29.4103 20.3927C29.4103 20.3927 29.9589 20.5232 30.1848 20.0914L30.7516 19.2169C30.7516 19.2169 30.8761 19.0015 30.8588 18.7309C30.8588 18.7309 30.9101 18.4629 30.6835 18.1904C30.6835 18.1904 30.4694 17.9646 30.4356 17.8011L30.0315 16.8542C30.0315 16.8542 29.8679 16.6013 29.6881 16.4972L29.1487 16.5366C29.1487 16.5366 29.5199 17.4827 29.7917 17.8681C29.7917 17.8681 30.1595 18.4292 30.1408 18.7859C30.1408 18.7859 30.1165 19.0359 30.0176 19.1402C30.0176 19.1402 29.8932 19.3389 29.843 19.4353C29.843 19.4353 29.6796 19.7892 29.5468 19.8678C29.5468 19.8678 29.3174 20.0032 29.2616 20.0086C29.2616 20.0086 29.1617 20.0362 29.2358 19.8579C29.2358 19.8579 29.5381 19.2235 29.5182 18.8842C29.5182 18.8842 29.5769 18.5308 29.3261 18.3239C29.3261 18.3239 28.7385 17.3989 28.6543 17.1224C28.6543 17.1224 28.47 16.7525 28.3719 16.689C28.3719 16.689 28.1665 16.4199 28.4979 16.2939C28.4979 16.2939 29.3235 16.108 29.4714 16.007C29.4714 16.007 29.8683 15.8872 30.1262 15.0626C30.1262 15.0626 30.4812 14.101 30.476 13.5075C30.476 13.5075 31.172 14.8456 30.0621 16.2064C30.0621 16.2064 30.9404 16.4647 31.3038 16.2064C31.3038 16.2064 32.3978 16.0469 32.6091 15.9888C32.6091 15.9888 32.8842 15.9225 32.7271 16.1172C32.7271 16.1172 32.3971 16.5852 32.3692 16.8919C32.3692 16.8919 32.3479 17.1361 32.1473 17.2791C32.1473 17.2791 31.5254 17.7134 31.4708 18.1293C31.4708 18.1293 31.3378 18.5297 31.6125 18.4339C31.6125 18.4339 31.9848 18.2619 32.1163 18.4351C32.1163 18.4351 32.1549 18.4532 32.0113 18.6139C32.0113 18.6139 31.6378 18.938 31.6099 19.3731C31.6099 19.3731 31.6789 19.8751 31.8109 20.0365C31.8109 20.0365 31.9791 20.2691 32.245 20.1952C32.245 20.1952 32.3155 20.1384 32.4428 20.1766C32.4428 20.1766 32.5743 20.1761 32.9178 20.0577C32.9178 20.0577 33.4385 19.915 33.6126 19.8536C33.6126 19.8536 34.2754 19.6172 34.6023 19.6337C34.6023 19.6337 34.815 19.6104 35.0861 19.6644C35.0861 19.6644 35.915 19.7583 36.4674 19.1494C36.4674 19.1494 36.8877 18.817 37.0304 19.1397C37.0304 19.1397 38.0388 20.4892 39.6711 20.1337C39.6711 20.1337 38.3724 19.601 38.0355 18.8755C38.0355 18.8755 37.9906 18.2595 37.3102 17.4041C37.3102 17.4041 37.1023 17.1203 37.3029 17.0465C37.3029 17.0465 37.419 16.9599 37.6724 17.2135C37.6724 17.2135 38.3187 17.8318 38.5522 18.3978C38.5522 18.3978 39.3548 19.6073 40.5116 19.2008C40.5116 19.2008 39.6034 18.8514 39.1767 18.1998C39.1767 18.1998 38.9129 17.318 38.0263 16.6619C38.0263 16.6619 37.9915 15.6708 37.578 15.1138C37.578 15.1138 37.3672 14.1831 37.3105 13.9656C37.3105 13.9656 37.0874 13.1482 37.0888 12.9224C37.0888 12.9224 37.1626 11.8546 36.4723 11.0235C36.4723 11.0235 36.0099 10.1343 35.2895 9.51482C35.2895 9.51482 34.7421 8.84034 34.335 8.42725C34.335 8.42725 33.7995 7.80113 32.6318 6.98415C32.6318 6.98415 32.1031 6.60078 31.7158 6.18864C31.7158 6.18864 29.6561 4.71015 28.1682 5.8961C28.1682 5.8961 27.1406 6.59323 26.2823 6.8091C26.2823 6.8091 24.5186 7.01387 23.7665 8.23474C23.7665 8.23474 23.7022 8.46028 22.9913 8.54615C22.9913 8.54615 21.4298 8.35812 20.2801 9.88969C20.2801 9.88969 19.746 10.4097 18.6886 10.5361C18.6886 10.5361 16.9641 10.3601 15.8413 11.6786C15.8413 11.6786 13.0083 14.1433 11.3191 12.5449C11.3191 12.5449 10.4438 11.7185 11.4444 10.2221C11.4444 10.2221 12.0791 9.4582 13.1618 8.6601C13.1618 8.6601 14.0402 8.04294 13.6376 7.08347C13.6376 7.08347 13.4249 6.15632 12.1085 6.13178C12.1085 6.13178 10.4566 5.81353 9.78852 4.98169C9.78852 4.98169 9.04265 7.60154 11.9701 7.5579C11.9701 7.5579 12.733 7.67043 12.4666 8.27437C12.4666 8.27437 12.0926 8.79103 11.5906 8.97906C11.5906 8.97906 10.7076 9.36431 10.3085 10.6467C10.3085 10.6467 9.41665 12.8917 11.5925 13.7583C12.4299 14.0468 13.3972 13.9618 14.259 13.8123ZM10.0698 19.1025C10.1878 19.0041 10.3608 18.9486 10.5143 18.9845C10.8606 19.0588 10.651 19.358 10.651 19.358C10.5107 19.6196 10.053 20.061 10.053 20.061C9.64588 20.3651 9.32345 20.003 9.32345 20.003C9.02184 19.7064 9.41429 19.563 9.41429 19.563C9.64256 19.4705 10.0698 19.1025 10.0698 19.1025ZM9.19689 20.5057C9.19689 20.5057 9.32345 20.5989 9.25579 20.7829C9.25579 20.7829 8.93265 21.665 8.94779 21.9611C8.94779 21.9611 8.23268 22.0885 8.13356 21.7365C8.13356 21.7365 8.1144 21.6006 8.23102 21.4036C8.23102 21.4036 8.35237 21.2198 8.38384 20.8836C8.38384 20.8836 8.37319 20.0376 8.92272 20.2618C9.03177 20.3226 9.11788 20.4111 9.19689 20.5057ZM34.4022 18.7156C34.2764 18.7125 34.2444 18.6665 34.2596 18.5282C34.344 18.1439 34.653 17.9781 34.653 17.9781C35.2325 17.6327 35.303 17.9786 35.303 17.9786C35.4092 18.5955 34.9203 18.6731 34.9203 18.6731C34.8226 18.7066 34.4022 18.7156 34.4022 18.7156ZM36.1506 15.9605C36.1613 15.6711 36.1859 15.0277 35.8909 14.7979C35.7821 14.7116 35.3515 14.2414 35.3515 14.2414C35.286 14.1275 35.2356 14.1204 35.2356 14.1204C35.1469 14.1119 35.0324 14.3176 35.0324 14.3176C34.7258 14.9076 34.4199 14.8357 34.4199 14.8357C34.4173 14.7281 34.4895 14.608 34.4895 14.608C34.6375 14.3214 34.7841 14.034 34.9293 13.746C34.974 13.6436 35.0151 13.5072 35.0151 13.5072C35.3111 13.0498 35.59 13.398 35.59 13.398C35.7144 13.6403 36.3779 14.4297 36.3779 14.4297C36.5251 14.6042 36.5393 14.7918 36.5393 14.7918C36.693 15.873 36.1506 15.9605 36.1506 15.9605ZM30.0391 9.43367C29.9485 9.27112 29.9859 9.10527 30.077 8.94721C30.2823 8.63344 30.4742 8.97575 30.4742 8.97575C31.1831 9.96141 30.6596 11.4371 30.6596 11.4371C30.5868 10.0789 30.0391 9.43367 30.0391 9.43367ZM68.1045 13.8123C68.1045 13.8123 68.2341 15.0638 67.6687 16.1667C67.6687 16.1667 67.2498 16.7589 67.6848 17.1392L68.5511 17.6412C68.5511 17.6412 68.6672 17.7275 69.0538 17.6983C69.0538 17.6983 69.5875 17.5664 69.7656 17.8016C69.7656 17.8016 69.9208 18.2539 70.1145 18.6266C70.1145 18.6266 70.5096 19.5302 71.1622 19.8196C71.1622 19.8196 71.6822 19.9386 71.8395 20.3884C71.8395 20.3884 72.0077 20.7041 72.3431 20.718C72.3431 20.718 72.5941 20.7973 72.7597 21.3538C72.7597 21.3538 72.8503 21.7138 72.8458 21.9898C72.8458 21.9898 72.4184 21.9339 72.1397 22.0344C72.1397 22.0344 71.4553 22.2637 71.1492 21.7013C71.1492 21.7013 70.5578 20.6914 70.1192 20.8433C70.1192 20.8433 69.2385 21.1372 68.6161 20.496C68.6161 20.496 67.7617 19.5649 66.5543 19.7564C66.5543 19.7564 65.195 20.031 64.7706 19.7182C64.7706 19.7182 63.9131 19.2711 63.5914 19.1603C63.5914 19.1603 63.1975 19.0449 63.1573 18.6151C63.1573 18.6151 62.9177 18.0104 62.7436 17.8089L63.392 17.8016C63.392 17.8016 63.9791 18.7868 64.9772 19.0838C64.9772 19.0838 65.5234 19.3013 66.6184 19.1246C66.6184 19.1246 68.1915 18.7693 69.573 20.2573C69.573 20.2573 69.762 20.5293 70.031 20.4205C70.031 20.4205 69.2681 19.1223 67.5918 18.8146C67.5918 18.8146 67.0435 18.6983 66.5855 18.7724C66.5855 18.7724 64.328 18.8385 63.2808 16.622C63.2808 16.622 63.3946 14.7323 62.8947 14.2848C62.8947 14.2848 62.7022 14.2258 62.74 14.5913C62.74 14.5913 63.0833 16.5708 62.4387 16.9542C62.4387 16.9542 62.0639 17.2477 61.3711 17.1392C61.3711 17.1392 60.321 16.8889 59.4675 17.0347C59.4675 17.0347 58.1541 17.3454 57.026 17.2017C57.026 17.2017 57.3191 16.7544 57.2616 16.2196C57.2616 16.2196 57.0998 15.8367 56.9145 16.083C56.9145 16.083 56.4805 17.5131 55.2939 17.9422C55.2939 17.9422 54.2343 18.327 54.2516 19.6672C54.2516 19.6672 54.4144 19.851 55.8195 20.3488C55.8195 20.3488 56.3447 20.5142 56.5138 20.123C56.5138 20.123 57.1906 18.6769 57.7806 18.7215L58.8884 18.8111C58.8884 18.8111 59.2659 18.9076 58.9875 19.2096C58.9875 19.2096 58.6088 19.7123 58.4534 20.0124C58.4534 20.0124 58.4086 20.2688 58.0522 20.2143C58.0522 20.2143 57.558 19.9702 57.2788 20.8869C57.2788 20.8869 57.0243 21.3453 56.5926 21.4918C56.5926 21.4918 56.1885 21.6263 55.8098 21.4142C55.8098 21.4142 53.981 20.7447 53.6628 20.5073C53.6628 20.5073 53.267 20.2865 52.9536 20.3927C52.9536 20.3927 52.4055 20.5232 52.1796 20.0914L51.6128 19.2169C51.6128 19.2169 51.4879 19.0015 51.5054 18.7309C51.5054 18.7309 51.4538 18.4629 51.6807 18.1904C51.6807 18.1904 51.895 17.9646 51.9286 17.8011L52.3329 16.8542C52.3329 16.8542 52.4966 16.6013 52.6761 16.4972L53.216 16.5366C53.216 16.5366 52.8443 17.4827 52.5723 17.8681C52.5723 17.8681 52.2044 18.4292 52.2231 18.7859C52.2231 18.7859 52.2477 19.0359 52.3464 19.1402C52.3464 19.1402 52.4708 19.3389 52.5212 19.4353C52.5212 19.4353 52.6839 19.7892 52.8171 19.8678C52.8171 19.8678 53.0463 20.0032 53.1024 20.0086C53.1024 20.0086 53.2025 20.0362 53.1275 19.8579C53.1275 19.8579 52.8261 19.2235 52.8453 18.8842C52.8453 18.8842 52.7871 18.5308 53.0373 18.3239C53.0373 18.3239 53.6254 17.3989 53.7101 17.1224C53.7101 17.1224 53.8937 16.7525 53.9921 16.689C53.9921 16.689 54.1974 16.4199 53.866 16.2939C53.866 16.2939 53.0407 16.108 52.8928 16.007C52.8928 16.007 52.4959 15.8872 52.2378 15.0626C52.2378 15.0626 51.8829 14.101 51.8879 13.5075C51.8879 13.5075 51.192 14.8456 52.3021 16.2064C52.3021 16.2064 51.4238 16.4647 51.0604 16.2064C51.0604 16.2064 49.9666 16.0469 49.7546 15.9888C49.7546 15.9888 49.4802 15.9225 49.6368 16.1172C49.6368 16.1172 49.9666 16.5852 49.995 16.8919C49.995 16.8919 50.0158 17.1361 50.2169 17.2791C50.2169 17.2791 50.8388 17.7134 50.8929 18.1293C50.8929 18.1293 51.0261 18.5297 50.7512 18.4339C50.7512 18.4339 50.3791 18.2619 50.2476 18.4351C50.2476 18.4351 50.2091 18.4532 50.3526 18.6139C50.3526 18.6139 50.7262 18.938 50.7538 19.3731C50.7538 19.3731 50.6848 19.8751 50.5525 20.0365C50.5525 20.0365 50.3846 20.2691 50.1187 20.1952C50.1187 20.1952 50.0484 20.1384 49.9205 20.1766C49.9205 20.1766 49.7892 20.1761 49.4457 20.0577C49.4457 20.0577 48.925 19.915 48.7509 19.8536C48.7509 19.8536 48.0881 19.6172 47.7609 19.6337C47.7609 19.6337 47.5482 19.6104 47.2771 19.6644C47.2771 19.6644 46.448 19.7583 45.8956 19.1494C45.8956 19.1494 45.4753 18.817 45.3331 19.1397C45.3331 19.1397 44.3244 20.4892 42.6919 20.1337C42.6919 20.1337 43.9913 19.601 44.328 18.8755C44.328 18.8755 44.3724 18.2595 45.0528 17.4041C45.0528 17.4041 45.2605 17.1203 45.0599 17.0465C45.0599 17.0465 44.944 16.9599 44.6904 17.2135C44.6904 17.2135 44.0448 17.8318 43.8111 18.3978C43.8111 18.3978 43.008 19.6073 41.8517 19.2008C41.8517 19.2008 42.7593 18.8514 43.1861 18.1998C43.1861 18.1998 43.4499 17.318 44.3372 16.6619C44.3372 16.6619 44.3717 15.6708 44.7855 15.1138C44.7855 15.1138 44.9965 14.1831 45.0528 13.9656C45.0528 13.9656 45.2756 13.1482 45.2742 12.9224C45.2742 12.9224 45.2004 11.8546 45.8909 11.0235C45.8909 11.0235 46.3531 10.1343 47.0742 9.51482C47.0742 9.51482 47.6213 8.84034 48.0282 8.42725C48.0282 8.42725 48.564 7.80113 49.7317 6.98415C49.7317 6.98415 50.2601 6.60078 50.6472 6.18864C50.6472 6.18864 52.7066 4.71015 54.1951 5.8961C54.1951 5.8961 55.2227 6.59323 56.0814 6.8091C56.0814 6.8091 57.8447 7.01387 58.5962 8.23474C58.5962 8.23474 58.6606 8.46028 59.3714 8.54615C59.3714 8.54615 60.933 8.35812 62.0829 9.88969C62.0829 9.88969 62.617 10.4097 63.6747 10.5361C63.6747 10.5361 65.3982 10.3601 66.521 11.6786C66.521 11.6786 69.3542 14.1433 71.0437 12.5449C71.0437 12.5449 71.9185 11.7185 70.9181 10.2221C70.9181 10.2221 70.2836 9.4582 69.2012 8.6601C69.2012 8.6601 68.3221 8.04294 68.7252 7.08347C68.7252 7.08347 68.9379 6.15632 70.2543 6.13178C70.2543 6.13178 71.9062 5.81353 72.574 4.98169C72.574 4.98169 73.3204 7.60154 70.3925 7.5579C70.3925 7.5579 69.6293 7.67043 69.8959 8.27437C69.8959 8.27437 70.2699 8.79103 70.7719 8.97906C70.7719 8.97906 71.655 9.36431 72.0543 10.6467C72.0543 10.6467 72.9464 12.8917 70.7695 13.7583C69.9333 14.0468 68.9663 13.9618 68.1045 13.8123ZM72.2939 19.1025C72.1756 19.0041 72.0027 18.9486 71.8497 18.9845C71.5029 19.0588 71.7127 19.358 71.7127 19.358C71.8532 19.6196 72.311 20.061 72.311 20.061C72.7185 20.3651 73.0405 20.003 73.0405 20.003C73.3416 19.7064 72.949 19.563 72.949 19.563C72.7211 19.4705 72.2939 19.1025 72.2939 19.1025ZM73.1663 20.5057C73.1663 20.5057 73.0405 20.5989 73.1074 20.7829C73.1074 20.7829 73.4306 21.665 73.4157 21.9611C73.4157 21.9611 74.1313 22.0885 74.2297 21.7365C74.2297 21.7365 74.2488 21.6006 74.1325 21.4036C74.1325 21.4036 74.0111 21.2198 73.9796 20.8836C73.9796 20.8836 73.9905 20.0376 73.441 20.2618C73.3317 20.3226 73.2456 20.4111 73.1663 20.5057ZM47.961 18.7156C48.0871 18.7125 48.1195 18.6665 48.1039 18.5282C48.0192 18.1439 47.7108 17.9781 47.7108 17.9781C47.1312 17.6327 47.0605 17.9786 47.0605 17.9786C46.9547 18.5955 47.4434 18.6731 47.4434 18.6731C47.5411 18.7066 47.961 18.7156 47.961 18.7156ZM46.2131 15.9605C46.2022 15.6711 46.1774 15.0277 46.4728 14.7979C46.5821 14.7116 47.0122 14.2414 47.0122 14.2414C47.0777 14.1275 47.1281 14.1204 47.1281 14.1204C47.2164 14.1119 47.3316 14.3176 47.3316 14.3176C47.6377 14.9076 47.944 14.8357 47.944 14.8357C47.9464 14.7281 47.8737 14.608 47.8737 14.608C47.7258 14.3214 47.5793 14.034 47.4342 13.746C47.4018 13.6678 47.3732 13.5881 47.3484 13.5072C47.0524 13.0498 46.7737 13.398 46.7737 13.398C46.6493 13.6403 45.986 14.4297 45.986 14.4297C45.8982 14.5323 45.842 14.6581 45.824 14.7918C45.6709 15.873 46.2131 15.9605 46.2131 15.9605ZM52.3244 9.43367C52.415 9.27112 52.3776 9.10527 52.2865 8.94721C52.0812 8.63344 51.8898 8.97575 51.8898 8.97575C51.1806 9.96141 51.7041 11.4371 51.7041 11.4371C51.7765 10.0789 52.3244 9.43367 52.3244 9.43367Z" fill="#CC2729"/>
<path d="M0.0131836 29.8592V47.9401H3.67156V33.3099H5.39513C5.39513 33.3099 8.08575 33.1892 8.08575 35.6318C8.08575 38.0745 5.69698 38.0136 5.69698 38.0136H4.82005V42.1755L8.47914 47.9405H12.772L7.66254 40.5476C7.66254 40.5476 11.8652 40.1857 11.8652 35.6323C11.8652 31.0796 8.69039 29.8599 4.45788 29.8599L0.0131836 29.8592ZM53.5005 38.3163C53.5005 38.3163 55.1025 37.0735 55.1025 34.7184C55.1025 32.362 53.3865 30.2378 49.7326 30.2378H43.6133V47.9403H51.1505C51.1505 47.9403 56.5528 47.8792 56.5528 43.0106C56.5531 40.1843 55.4528 39.1019 53.5005 38.3163ZM50.5523 44.8592H47.2721V33.3246H49.0253C49.0253 33.3246 51.4079 33.1462 51.4079 35.2192C51.4079 37.2922 49.5126 37.1094 49.5126 37.1094H48.4209V40.2169H50.5516C51.1101 40.2169 52.8895 40.487 52.8895 42.5291C52.8892 44.5707 50.5523 44.8592 50.5523 44.8592ZM76.5702 29.5037H79.987V47.9403H76.5702V29.5037ZM70.6898 29.5037H74.1516V47.9403H70.6898V29.5037ZM57.5826 37.14H61.0893V43.3211C61.0893 43.3211 61.2114 45.4026 63.176 45.4026C65.1406 45.4026 65.1115 43.3211 65.1115 43.3211V37.1693H68.6483V43.5329C68.6483 43.5329 69.1023 48.5082 63.2664 48.5082C57.4312 48.5082 57.5826 44.1359 57.5826 43.352V37.14ZM34.3314 29.5037V37.8641C34.3314 37.8641 32.6382 36.5677 30.7019 36.5677C28.7676 36.5677 25.5021 37.9245 25.5021 42.2059C25.5021 46.4875 28.2841 48.1168 30.6724 48.1168C33.0614 48.1168 34.3918 46.5484 34.3918 46.5484V47.9408H37.838V29.5039H34.3314V29.5037ZM31.6702 45.1001C31.4885 45.1001 29.2208 45.1305 29.2208 42.3566C29.2208 39.582 31.7 39.4917 31.7 39.4917C31.7 39.4917 34.4821 39.582 34.4821 42.296C34.4821 45.01 31.8514 45.1001 31.6702 45.1001ZM18.6081 36.5672C24.4738 36.5672 24.2318 42.2665 24.2318 42.2665V43.1705H16.2801C16.2801 44.4667 17.3683 45.5828 18.8501 45.5828C20.3314 45.5828 21.0875 44.1656 21.0875 44.1656L23.899 45.5524C22.5991 47.5131 20.8455 48.2963 18.8804 48.2963C12.7724 48.2963 12.6516 43.2309 12.6516 42.598C12.6516 41.9643 12.7429 36.5672 18.6081 36.5672ZM16.3402 41.0895H20.6948C20.6948 41.0895 20.5134 39.0399 18.548 39.0399C16.5827 39.0396 16.3402 41.0895 16.3402 41.0895Z" fill="#CC2729"/>
</g>
<defs>
<clipPath id="clip0_81_80">
<rect width="80" height="48.5079" fill="white"/>
</clipPath>
</defs>
</svg>
